STARTFONT 2.1
COMMENT
COMMENT Converted from OpenType font "..\ttf\ITC Avant Garde Gothic Medium.otf" by "otf2bdf.exe 3.0".
COMMENT
FONT -FreeType-ITC Avant Garde Gothic-Medium-R-Normal--43-310-100-100-P-201-ISO10646-1
SIZE 31 100 100
FONTBOUNDINGBOX 55 54 -4 -11
STARTPROPERTIES 19
FOUNDRY "FreeType"
FAMILY_NAME "ITC Avant Garde Gothic"
WEIGHT_NAME "Medium"
SLANT "R"
SETWIDTH_NAME "Normal"
ADD_STYLE_NAME ""
PIXEL_SIZE 43
POINT_SIZE 310
RESOLUTION_X 100
RESOLUTION_Y 100
SPACING "P"
AVERAGE_WIDTH 201
CHARSET_REGISTRY "ISO10646"
CHARSET_ENCODING "1"
FONT_ASCENT 42
FONT_DESCENT 11
COPYRIGHT "Copyright (c) 1991 Adobe Systems Incorporated.  All Rights Reserved.ITC Avant Garde Gothic is a registered trademark of International Typeface Corporation."
_OTF_FONTFILE "..\ttf\ITC Avant Garde Gothic Medium.otf"
_OTF_PSNAME "AvantGarde-Medium"
ENDPROPERTIES
CHARS 228
STARTCHAR 0020
ENCODING 32
SWIDTH 278 0
DWIDTH 12 0
BBX 0 0 0 0
BITMAP
ENDCHAR
STARTCHAR 0021
ENCODING 33
SWIDTH 278 0
DWIDTH 12 0
BBX 4 32 4 0
BITMAP
F0
F0
F0
F0
F0
F0
F0
F0
F0
F0
F0
F0
F0
F0
F0
F0
F0
F0
F0
F0
F0
F0
F0
F0
00
00
00
F0
F0
F0
F0
F0
ENDCHAR
STARTCHAR 0022
ENCODING 34
SWIDTH 325 0
DWIDTH 14 0
BBX 11 13 1 19
BITMAP
F1E0
F1E0
F1E0
F1E0
F1E0
F1E0
F1E0
F1E0
F1E0
F1E0
F1E0
F1E0
F1E0
ENDCHAR
STARTCHAR 0023
ENCODING 35
SWIDTH 557 0
DWIDTH 24 0
BBX 21 31 1 0
BITMAP
01E1E0
01C1E0
03C1C0
03C3C0
03C3C0
03C3C0
03C3C0
03C3C0
0383C0
7FFFF8
7FFFF8
7FFFF8
7FFFF8
078780
078780
078780
070700
0F0700
FFFFF0
FFFFF0
FFFFF0
FFFFF0
0F0F00
0E0F00
0E0E00
1E0E00
1E1E00
1E1E00
1E1E00
1E1E00
1C1E00
ENDCHAR
STARTCHAR 0024
ENCODING 36
SWIDTH 557 0
DWIDTH 24 0
BBX 18 40 3 -4
BITMAP
01E000
01E000
01E000
01E000
01E000
03F800
0FFE00
1FFF00
3FFF80
3E0F80
7C07C0
7803C0
7803C0
780000
780000
7C0000
3F0000
3FE000
1FFC00
0FFE00
03FF00
003F80
000F80
0007C0
0003C0
0003C0
F003C0
F003C0
F807C0
780780
7E1F80
3FFF80
3FFF00
0FFE00
07F800
01E000
01E000
01E000
01E000
01E000
ENDCHAR
STARTCHAR 0025
ENCODING 37
SWIDTH 836 0
DWIDTH 36 0
BBX 32 34 2 -1
BITMAP
07E00040
1FF801C0
3FFC0180
7FFE0380
7C3E0300
F81F0600
F00F0E00
F00F0C00
F00F1C00
F00F1800
F81F3800
7C3E3000
7FFE7000
3FFCE000
1FF8C000
07E1C000
00018000
00038000
000307E0
00071FF8
000E3FFC
000E7FFE
001C7C3E
0018F81F
0038F00F
0070F00F
0070F00F
00E0F00F
00E0F81F
01C07C3E
01C07FFE
03803FFC
07001FF8
000007E0
ENDCHAR
STARTCHAR 0026
ENCODING 38
SWIDTH 673 0
DWIDTH 29 0
BBX 27 33 1 -1
BITMAP
00FC0000
03FF0000
07FF8000
0FFFC000
0F87C000
1F03E000
1E01E000
1E01E000
1E01E000
1E01E000
1F03E000
0F8FC000
0FFFC000
07FF87C0
07FF07C0
0FFE0F80
1FFE0F80
3FFF1F00
7E3F9F00
7C1FFE00
F80FFE00
F007FC00
F003FC00
F001F800
F000FC00
F000FE00
F801FF00
7C03FF80
7E0FCFC0
3FFF87E0
1FFF03E0
0FFE01C0
03F80080
ENDCHAR
STARTCHAR 0027
ENCODING 39
SWIDTH 209 0
DWIDTH 9 0
BBX 4 13 2 19
BITMAP
F0
F0
F0
F0
F0
F0
F0
F0
F0
F0
F0
F0
F0
ENDCHAR
STARTCHAR 0028
ENCODING 40
SWIDTH 418 0
DWIDTH 18 0
BBX 12 43 2 -11
BITMAP
0010
0030
0070
00F0
01F0
03F0
07E0
0FC0
0F80
1F00
1E00
3E00
3C00
7C00
7800
7800
7800
F000
F000
F000
F000
F000
F000
F000
F000
F000
F800
7800
7800
7800
7C00
3C00
3E00
1F00
1F80
0F80
0FC0
07F0
03F0
01F0
00F0
0070
0030
ENDCHAR
STARTCHAR 0029
ENCODING 41
SWIDTH 418 0
DWIDTH 18 0
BBX 12 43 3 -11
BITMAP
C000
E000
F000
F800
FC00
FE00
7E00
1F00
1F80
0F80
07C0
03C0
03E0
03E0
01E0
01E0
01F0
00F0
00F0
00F0
00F0
00F0
00F0
00F0
00F0
00F0
01E0
01E0
01E0
03E0
03C0
07C0
07C0
0F80
1F00
3F00
7E00
FC00
FC00
F800
F000
C000
8000
ENDCHAR
STARTCHAR 002A
ENCODING 42
SWIDTH 580 0
DWIDTH 25 0
BBX 16 16 4 16
BITMAP
01C0
01C0
01C0
01C0
41C2
79CF
FFFF
7FFE
0FF0
07E0
07E0
0F70
1E38
3C3C
1818
0810
ENDCHAR
STARTCHAR 002B
ENCODING 43
SWIDTH 603 0
DWIDTH 26 0
BBX 22 22 2 0
BITMAP
007800
007800
007800
007800
007800
007800
007800
007800
007800
FFFFFC
FFFFFC
FFFFFC
FFFFFC
007800
007800
007800
007800
007800
007800
007800
007800
007800
ENDCHAR
STARTCHAR 002C
ENCODING 44
SWIDTH 278 0
DWIDTH 12 0
BBX 4 10 4 -5
BITMAP
F0
F0
F0
F0
F0
70
70
70
E0
C0
ENDCHAR
STARTCHAR 002D
ENCODING 45
SWIDTH 278 0
DWIDTH 12 0
BBX 12 4 0 10
BITMAP
FFF0
FFF0
FFF0
FFF0
ENDCHAR
STARTCHAR 002E
ENCODING 46
SWIDTH 278 0
DWIDTH 12 0
BBX 4 5 4 1
BITMAP
F0
F0
F0
F0
F0
ENDCHAR
STARTCHAR 002F
ENCODING 47
SWIDTH 487 0
DWIDTH 21 0
BBX 17 36 2 -5
BITMAP
000F80
000F00
001F00
001F00
001E00
003E00
003E00
003C00
007C00
007C00
007800
00F800
00F800
01F000
01F000
01F000
03E000
03E000
03E000
07C000
07C000
07C000
0F8000
0F8000
0F8000
1F0000
1F0000
1F0000
3E0000
3E0000
3E0000
7C0000
7C0000
7C0000
F80000
F80000
ENDCHAR
STARTCHAR 0030
ENCODING 48
SWIDTH 557 0
DWIDTH 24 0
BBX 20 34 2 -1
BITMAP
01F800
07FE00
0FFF80
1FFFC0
3F0FC0
7C03E0
7801E0
F801F0
F000F0
F000F0
F000F0
F000F0
F000F0
F000F0
F000F0
F000F0
F000F0
F000F0
F000F0
F000F0
F000F0
F000F0
F000F0
F000F0
F000F0
F000F0
F800F0
7801E0
7C03E0
3F0FC0
3FFFC0
1FFF80
07FE00
01F800
ENDCHAR
STARTCHAR 0031
ENCODING 49
SWIDTH 557 0
DWIDTH 24 0
BBX 9 32 6 0
BITMAP
FF80
FF80
FF80
FF80
0780
0780
0780
0780
0780
0780
0780
0780
0780
0780
0780
0780
0780
0780
0780
0780
0780
0780
0780
0780
0780
0780
0780
0780
0780
0780
0780
0780
ENDCHAR
STARTCHAR 0032
ENCODING 50
SWIDTH 557 0
DWIDTH 24 0
BBX 19 33 2 0
BITMAP
01F800
07FE00
1FFF00
3FFF80
3E0F80
7C07C0
7803C0
7803E0
F001E0
F001E0
F001E0
F001E0
0001E0
0003E0
0003C0
0007C0
000F80
001F00
003F00
007E00
00FC00
01F800
03F000
07E000
0FC000
1F8000
1F0000
3F0000
7E0000
FFFFE0
FFFFE0
FFFFE0
FFFFE0
ENDCHAR
STARTCHAR 0033
ENCODING 51
SWIDTH 557 0
DWIDTH 24 0
BBX 20 34 1 -1
BITMAP
00FC00
03FE00
0FFF80
0FFF80
1F0FC0
1E03C0
3C03E0
3C01E0
3C01E0
0001E0
0001E0
0003E0
0003E0
000FC0
00FFC0
00FF80
00FF80
00FFC0
000FE0
0003E0
0001F0
0001F0
0000F0
0000F0
F000F0
F000F0
F000F0
7801E0
7C03E0
3E07E0
3FFFC0
1FFF80
07FF00
01F800
ENDCHAR
STARTCHAR 0034
ENCODING 52
SWIDTH 557 0
DWIDTH 24 0
BBX 22 32 0 0
BITMAP
0001E0
0003E0
0007E0
0007E0
000FE0
001FE0
001FE0
003FE0
003DE0
007DE0
00F9E0
00F9E0
01F1E0
03E1E0
03E1E0
07C1E0
0FC1E0
0F81E0
1F01E0
1F01E0
3E01E0
7E01E0
7C01E0
FFFFFC
FFFFFC
FFFFFC
FFFFFC
0001E0
0001E0
0001E0
0001E0
0001E0
ENDCHAR
STARTCHAR 0035
ENCODING 53
SWIDTH 557 0
DWIDTH 24 0
BBX 21 33 1 -1
BITMAP
0FFFC0
0FFFC0
0FFFC0
1FFFC0
1F0000
1E0000
1E0000
1E0000
1E0000
3E0000
3EFC00
3FFF00
3FFFC0
3FFFC0
3F07E0
7E01F0
7C01F0
0000F8
0000F8
000078
000078
000078
000078
F80078
F80078
7800F0
7C01F0
7E01F0
3F07E0
1FFFC0
0FFF80
07FF00
01FC00
ENDCHAR
STARTCHAR 0036
ENCODING 54
SWIDTH 557 0
DWIDTH 24 0
BBX 22 33 1 -1
BITMAP
001F80
003F00
003E00
007E00
007C00
00F800
01F000
01F000
03E000
07C000
07FE00
0FFF80
1FFFC0
1FFFE0
3F83F0
3E01F8
7C00F8
78007C
F8007C
F0003C
F0003C
F0003C
F0003C
F0003C
F8007C
780078
7C00F8
3E01F0
3F83F0
1FFFE0
0FFFC0
07FF00
00FC00
ENDCHAR
STARTCHAR 0037
ENCODING 55
SWIDTH 557 0
DWIDTH 24 0
BBX 18 32 3 0
BITMAP
FFFFC0
FFFFC0
FFFFC0
FFFFC0
0003C0
000780
000780
000780
000F00
000F00
001E00
001E00
003E00
003C00
003C00
007C00
007800
00F800
00F000
01F000
01F000
01E000
03E000
03C000
07C000
07C000
0F8000
0F8000
0F0000
1F0000
1F0000
3E0000
ENDCHAR
STARTCHAR 0038
ENCODING 56
SWIDTH 557 0
DWIDTH 24 0
BBX 19 34 2 -1
BITMAP
01F000
07FC00
0FFE00
1FFF00
3F0F80
3C0780
7C07C0
7803C0
7803C0
7803C0
7803C0
7C07C0
7C07C0
3F0F80
3FFF80
1FFF00
1FFF00
3FFF80
7E0FC0
7C07C0
F803E0
F803E0
F001E0
F001E0
F001E0
F001E0
F801E0
7803C0
7C07C0
3E0F80
3FFF80
1FFF00
07FC00
01F000
ENDCHAR
STARTCHAR 0039
ENCODING 57
SWIDTH 557 0
DWIDTH 24 0
BBX 21 33 1 0
BITMAP
00FC00
07FF00
0FFF80
1FFFC0
3F07E0
3E03E0
7C01F0
7800F0
F800F8
F00078
F00078
F00078
F00078
F00078
F800F8
7800F0
7C01F0
7E03E0
3F07E0
1FFFC0
0FFFC0
07FF80
01FF00
001F00
001E00
003E00
007C00
007800
00F800
01F000
01F000
03E000
07C000
ENDCHAR
STARTCHAR 003A
ENCODING 58
SWIDTH 278 0
DWIDTH 12 0
BBX 4 24 4 0
BITMAP
F0
F0
F0
F0
F0
00
00
00
00
00
00
00
00
00
00
00
00
00
00
F0
F0
F0
F0
F0
ENDCHAR
STARTCHAR 003B
ENCODING 59
SWIDTH 278 0
DWIDTH 12 0
BBX 4 29 4 -6
BITMAP
F0
F0
F0
F0
F0
00
00
00
00
00
00
00
00
00
00
00
00
00
00
F0
F0
F0
F0
F0
70
70
70
E0
C0
ENDCHAR
STARTCHAR 003C
ENCODING 60
SWIDTH 603 0
DWIDTH 26 0
BBX 22 22 2 0
BITMAP
00000C
00003C
0000FC
0007FC
001FF8
007FE0
03FF80
0FFC00
3FF000
FF8000
FE0000
FE0000
FF8000
7FF000
0FFC00
03FF00
00FFE0
001FF8
0007FC
0001FC
00003C
00000C
ENDCHAR
STARTCHAR 003D
ENCODING 61
SWIDTH 603 0
DWIDTH 26 0
BBX 22 13 2 4
BITMAP
FFFFFC
FFFFFC
FFFFFC
FFFFFC
000000
000000
000000
000000
000000
FFFFFC
FFFFFC
FFFFFC
FFFFFC
ENDCHAR
STARTCHAR 003E
ENCODING 62
SWIDTH 603 0
DWIDTH 26 0
BBX 22 22 2 1
BITMAP
E00000
F80000
FE0000
FFC000
3FF000
0FFC00
03FF80
007FE0
001FF8
0007FC
0000FC
0003FC
000FFC
003FF0
01FF80
07FE00
1FF800
FFC000
FF0000
FC0000
F00000
800000
ENDCHAR
STARTCHAR 003F
ENCODING 63
SWIDTH 510 0
DWIDTH 22 0
BBX 19 32 1 0
BITMAP
01F800
0FFE00
1FFF00
3FFF80
7F0FC0
7C03C0
FC03E0
F801E0
F801E0
0001E0
0001E0
0003E0
0003C0
0007C0
000F80
001F80
003F00
003E00
007C00
007800
00F800
00F000
00F000
00F000
000000
000000
000000
00F000
00F000
00F000
00F000
00F000
ENDCHAR
STARTCHAR 0040
ENCODING 64
SWIDTH 766 0
DWIDTH 33 0
BBX 32 33 0 -1
BITMAP
0007FC00
007FFF00
01FFFFC0
03F807F0
07C000F8
0F000078
1E00003C
3C00001E
3803E00E
780FFB8E
701FFF87
703C1F87
F0780F87
E0700707
E0F00707
E0E00707
E0E00707
E0E00707
E0E00E0E
E0E00E0E
70F01E1C
70787E3C
707FFFF8
383FF7F0
380FC3C0
1C000000
1E000000
0F800018
07C00078
03F803F8
00FFFFF8
003FFFC0
0007FE00
ENDCHAR
STARTCHAR 0041
ENCODING 65
SWIDTH 673 0
DWIDTH 29 0
BBX 28 32 1 0
BITMAP
000F0000
001F8000
001F8000
001F8000
003FC000
003FC000
003FE000
007FE000
0079E000
00F9F000
00F9F000
00F0F000
01F0F800
01F0F800
01E07800
03E07C00
03E07C00
07C03E00
07C03E00
07FFFE00
0FFFFF00
0FFFFF00
0FFFFF00
1F000F80
1F000F80
3E0007C0
3E0007C0
3E0007C0
7C0003E0
7C0003E0
780001E0
F80001F0
ENDCHAR
STARTCHAR 0042
ENCODING 66
SWIDTH 580 0
DWIDTH 25 0
BBX 20 32 3 0
BITMAP
FFF000
FFFC00
FFFE00
FFFF00
F03F80
F00F80
F007C0
F003C0
F003C0
F003C0
F003C0
F003C0
F007C0
F01F80
FFFF00
FFFF00
FFFF80
FFFFC0
F007E0
F003E0
F001F0
F000F0
F000F0
F000F0
F000F0
F001F0
F003E0
F00FE0
FFFFC0
FFFF80
FFFF00
FFF800
ENDCHAR
STARTCHAR 0043
ENCODING 67
SWIDTH 789 0
DWIDTH 34 0
BBX 30 33 2 -1
BITMAP
000FF000
007FFE00
01FFFF80
03FFFFC0
07F01FE0
0FC007F0
1F8001F8
1F0000FC
3E00007C
7C000000
78000000
78000000
F8000000
F0000000
F0000000
F0000000
F0000000
F0000000
F0000000
F0000000
78000000
78000000
7C000000
3C000000
3E000000
1F0000FC
1F8001F8
0FC007F0
07F81FE0
03FFFFC0
01FFFF80
007FFE00
000FF000
ENDCHAR
STARTCHAR 0044
ENCODING 68
SWIDTH 743 0
DWIDTH 32 0
BBX 26 32 3 0
BITMAP
FFFE0000
FFFFC000
FFFFE000
FFFFF800
F00FFC00
F000FE00
F0007E00
F0001F00
F0001F00
F0000F80
F0000780
F0000780
F00007C0
F00003C0
F00003C0
F00003C0
F00003C0
F00003C0
F00003C0
F00003C0
F0000780
F0000780
F0000780
F0000F80
F0001F00
F0003F00
F000FE00
F00FFC00
FFFFF800
FFFFE000
FFFFC000
FFFC0000
ENDCHAR
STARTCHAR 0045
ENCODING 69
SWIDTH 510 0
DWIDTH 22 0
BBX 17 32 3 0
BITMAP
FFFF80
FFFF80
FFFF80
FFFF80
F00000
F00000
F00000
F00000
F00000
F00000
F00000
F00000
F00000
F00000
FFFF80
FFFF80
FFFF80
FFFF80
F00000
F00000
F00000
F00000
F00000
F00000
F00000
F00000
F00000
F00000
FFFF80
FFFF80
FFFF80
FFFF80
ENDCHAR
STARTCHAR 0046
ENCODING 70
SWIDTH 487 0
DWIDTH 21 0
BBX 15 32 3 0
BITMAP
FFFE
FFFE
FFFE
FFFE
F000
F000
F000
F000
F000
F000
F000
F000
F000
F000
FFFE
FFFE
FFFE
FFFE
F000
F000
F000
F000
F000
F000
F000
F000
F000
F000
F000
F000
F000
F000
ENDCHAR
STARTCHAR 0047
ENCODING 71
SWIDTH 836 0
DWIDTH 36 0
BBX 32 33 2 -1
BITMAP
000FF000
007FFE00
01FFFF80
03FFFFC0
07F01FE0
0FC007F0
1F8001F8
3E0000FC
3E000000
7C000000
78000000
78000000
F8000000
F0000000
F0000000
F0000000
F00FFFFF
F00FFFFF
F00FFFFF
F80FFFFF
7800001F
7800003E
7C00003E
3C00007E
3E00007C
1F0000F8
1F8001F8
0FE007F0
07F81FE0
03FFFFC0
01FFFF00
007FFC00
000FF000
ENDCHAR
STARTCHAR 0048
ENCODING 72
SWIDTH 673 0
DWIDTH 29 0
BBX 22 32 3 0
BITMAP
F0003C
F0003C
F0003C
F0003C
F0003C
F0003C
F0003C
F0003C
F0003C
F0003C
F0003C
F0003C
F0003C
F0003C
FFFFFC
FFFFFC
FFFFFC
FFFFFC
F0003C
F0003C
F0003C
F0003C
F0003C
F0003C
F0003C
F0003C
F0003C
F0003C
F0003C
F0003C
F0003C
F0003C
ENDCHAR
STARTCHAR 0049
ENCODING 73
SWIDTH 255 0
DWIDTH 11 0
BBX 4 32 3 0
BITMAP
F0
F0
F0
F0
F0
F0
F0
F0
F0
F0
F0
F0
F0
F0
F0
F0
F0
F0
F0
F0
F0
F0
F0
F0
F0
F0
F0
F0
F0
F0
F0
F0
ENDCHAR
STARTCHAR 004A
ENCODING 74
SWIDTH 487 0
DWIDTH 21 0
BBX 17 33 0 -1
BITMAP
000780
000780
000780
000780
000780
000780
000780
000780
000780
000780
000780
000780
000780
000780
000780
000780
000780
000780
000780
000780
000780
000780
000780
000780
000780
000780
F80780
FC0F00
7E1F00
7FFF00
3FFE00
0FFC00
03F000
ENDCHAR
STARTCHAR 004B
ENCODING 75
SWIDTH 627 0
DWIDTH 27 0
BBX 22 32 4 0
BITMAP
F000FC
F001F8
F003F0
F003E0
F007C0
F00FC0
F01F80
F03F00
F03E00
F07C00
F0FC00
F1F800
F1F000
F3E000
F7E000
FFC000
F7C000
F7E000
F3F000
F1F000
F0F800
F0FC00
F07E00
F03E00
F01F00
F01F80
F00FC0
F007C0
F003E0
F003F0
F001F8
F000FC
ENDCHAR
STARTCHAR 004C
ENCODING 76
SWIDTH 441 0
DWIDTH 19 0
BBX 15 32 3 0
BITMAP
F000
F000
F000
F000
F000
F000
F000
F000
F000
F000
F000
F000
F000
F000
F000
F000
F000
F000
F000
F000
F000
F000
F000
F000
F000
F000
F000
F000
FFFE
FFFE
FFFE
FFFE
ENDCHAR
STARTCHAR 004D
ENCODING 77
SWIDTH 929 0
DWIDTH 40 0
BBX 33 32 3 0
BITMAP
FE00003F80
FE00003F80
FF00007F80
FF00007F80
FF8000FF80
FF8000FF80
F78000F780
F7C001F780
F3C001E780
F3E003E780
F3E003E780
F1E003C780
F1F007C780
F0F0078780
F0F80F8780
F0F80F8780
F0780F0780
F07C1F0780
F03C1E0780
F03E3E0780
F03E3E0780
F01E3C0780
F01F7C0780
F00F780780
F00FF80780
F00FF80780
F007F00780
F007F00780
F003E00780
F003E00780
F003E00780
F001C00780
ENDCHAR
STARTCHAR 004E
ENCODING 78
SWIDTH 743 0
DWIDTH 32 0
BBX 25 32 3 0
BITMAP
F8000780
F8000780
FC000780
FE000780
FF000780
FF000780
FF800780
FFC00780
F7C00780
F3E00780
F3F00780
F1F00780
F0F80780
F0FC0780
F07C0780
F03E0780
F03F0780
F01F0780
F00F8780
F00FC780
F007C780
F003E780
F003F780
F001F780
F000FF80
F000FF80
F0007F80
F0003F80
F0003F80
F0001F80
F0000F80
F0000F80
ENDCHAR
STARTCHAR 004F
ENCODING 79
SWIDTH 836 0
DWIDTH 36 0
BBX 32 33 2 -1
BITMAP
000FF000
007FFE00
00FFFF80
03FFFFC0
07F01FE0
0FC003F0
1F8001F8
1F0000FC
3E00007C
3C00003E
7C00003E
7800001E
7800001F
F000000F
F000000F
F000000F
F000000F
F000000F
F000000F
F000000F
F800001F
7800001E
7C00001E
3C00003E
3E00007C
1F0000F8
1F8001F8
0FC003F0
07F80FE0
03FFFFC0
01FFFF00
007FFE00
000FF000
ENDCHAR
STARTCHAR 0050
ENCODING 80
SWIDTH 557 0
DWIDTH 24 0
BBX 20 32 3 0
BITMAP
FFF800
FFFF00
FFFF80
FFFFC0
F01FE0
F003E0
F001F0
F000F0
F000F0
F000F0
F000F0
F000F0
F001F0
F003E0
F01FE0
FFFFC0
FFFF80
FFFF00
FFF800
F00000
F00000
F00000
F00000
F00000
F00000
F00000
F00000
F00000
F00000
F00000
F00000
F00000
ENDCHAR
STARTCHAR 0051
ENCODING 81
SWIDTH 836 0
DWIDTH 36 0
BBX 33 33 2 -1
BITMAP
000FF00000
007FFE0000
00FFFF8000
03FFFFC000
07F81FE000
0FC003F000
1F8001F800
1F0000F800
3E00007C00
3C00003E00
7C00003E00
7800001E00
F800001F00
F000000F00
F000000F00
F000000F00
F000000F00
F000000F00
F000000F00
F3FE000F00
FFFFC01F00
7FFFF01E00
7FFFFC1E00
7E03FE3E00
3E00FFFC00
1F003FFC00
1F800FF800
0FE007F800
07F81FFC00
03FFFFFF80
01FFFFFF80
007FFE1F80
000FF00780
ENDCHAR
STARTCHAR 0052
ENCODING 82
SWIDTH 603 0
DWIDTH 26 0
BBX 20 32 3 0
BITMAP
FFFC00
FFFF00
FFFF80
FFFFC0
F01FE0
F003E0
F001F0
F001F0
F000F0
F000F0
F000F0
F000F0
F000F0
F001F0
F003E0
F00FE0
FFFFC0
FFFF80
F7FF00
F3FC00
F1F000
F1F800
F0F800
F07C00
F07E00
F03E00
F01F00
F01F80
F00F80
F007C0
F003E0
F003E0
ENDCHAR
STARTCHAR 0053
ENCODING 83
SWIDTH 487 0
DWIDTH 21 0
BBX 18 33 1 -1
BITMAP
01F800
07FE00
1FFF00
1FFF80
3E0F80
3C07C0
7803C0
7803C0
7803C0
780000
7C0000
7C0000
3F0000
3FE000
1FF800
0FFC00
07FF00
00FF00
003F80
000F80
0007C0
0003C0
0003C0
F003C0
F003C0
F003C0
F807C0
7C0780
7E1F80
3FFF00
1FFE00
0FFC00
03F000
ENDCHAR
STARTCHAR 0054
ENCODING 84
SWIDTH 418 0
DWIDTH 18 0
BBX 16 32 0 0
BITMAP
FFFF
FFFF
FFFF
FFFF
03C0
03C0
03C0
03C0
03C0
03C0
03C0
03C0
03C0
03C0
03C0
03C0
03C0
03C0
03C0
03C0
03C0
03C0
03C0
03C0
03C0
03C0
03C0
03C0
03C0
03C0
03C0
03C0
ENDCHAR
STARTCHAR 0055
ENCODING 85
SWIDTH 650 0
DWIDTH 28 0
BBX 21 33 3 -1
BITMAP
F00078
F00078
F00078
F00078
F00078
F00078
F00078
F00078
F00078
F00078
F00078
F00078
F00078
F00078
F00078
F00078
F00078
F00078
F00078
F00078
F00078
F00078
F00078
F00078
F00078
F800F8
7800F0
7C01F0
3F07E0
3FFFE0
1FFFC0
07FF00
01FC00
ENDCHAR
STARTCHAR 0056
ENCODING 86
SWIDTH 673 0
DWIDTH 29 0
BBX 28 32 1 0
BITMAP
F80001F0
7C0001E0
7C0003E0
7C0003E0
3E0007C0
3E0007C0
1E000780
1F000F80
1F000F80
0F800F00
0F801F00
07801E00
07C03E00
07C03E00
03C03C00
03E07C00
01E07C00
01F07800
01F0F800
00F0F000
00F9F000
00F9F000
0079E000
007FE000
003FC000
003FC000
003FC000
001F8000
001F8000
000F0000
000F0000
000F0000
ENDCHAR
STARTCHAR 0057
ENCODING 87
SWIDTH 905 0
DWIDTH 39 0
BBX 38 32 1 0
BITMAP
F80078007C
F80078007C
7C00780078
7C00FC00F8
7C00FC00F8
3C00FC00F0
3E00FC00F0
3E01FE01F0
3E01FE01F0
1E01FE01E0
1F01FE03E0
1F03CF03E0
0F03CF03C0
0F03CF03C0
0F83CF07C0
0F878787C0
0787878780
0787878780
07C787CF80
07CF03CF80
03CF03CF00
03CF03CF00
03EF03FF00
01FE01FE00
01FE01FE00
01FE01FE00
01FE01FE00
00FC00FC00
00FC00FC00
00FC00FC00
007C00F800
0078007800
ENDCHAR
STARTCHAR 0058
ENCODING 88
SWIDTH 650 0
DWIDTH 28 0
BBX 27 32 0 0
BITMAP
FC0007E0
7E000FC0
3E000F80
3F001F80
1F803F00
0F803E00
0FC07E00
07C07C00
03E0F800
03F1F800
01F1F000
00FBE000
00FFE000
007FC000
003F8000
003F8000
003F8000
003F8000
007FC000
00FFE000
00FBE000
01F1F000
03F1F800
03E0F800
07C07C00
0FC07E00
0F803E00
1F003F00
3F001F80
3E000F80
7C000FC0
FC0007E0
ENDCHAR
STARTCHAR 0059
ENCODING 89
SWIDTH 603 0
DWIDTH 26 0
BBX 24 32 0 0
BITMAP
FC003F
7C003E
7C003E
3E007C
3E007C
1F00F8
1F00F8
0F81F0
0F81F0
07C3E0
07C3E0
03C3C0
03E7C0
01E780
01FF80
00FF00
00FF00
007E00
007E00
003C00
003C00
003C00
003C00
003C00
003C00
003C00
003C00
003C00
003C00
003C00
003C00
003C00
ENDCHAR
STARTCHAR 005A
ENCODING 90
SWIDTH 464 0
DWIDTH 20 0
BBX 20 32 0 0
BITMAP
7FFFE0
7FFFE0
7FFFE0
7FFFE0
0003E0
0007E0
0007C0
000F80
000F80
001F00
003F00
003E00
007E00
007C00
00F800
01F800
01F000
03F000
03E000
07C000
0FC000
0F8000
1F8000
1F0000
3E0000
7E0000
7C0000
FC0000
FFFFF0
FFFFF0
FFFFF0
FFFFF0
ENDCHAR
STARTCHAR 005B
ENCODING 91
SWIDTH 418 0
DWIDTH 18 0
BBX 8 44 5 -11
BITMAP
01
03
0F
1F
3F
3F
7E
7C
78
F8
F0
F0
F0
F0
F0
F0
F0
F0
F0
F0
F0
F0
F0
F0
F0
F0
F0
F0
F0
F0
F0
F0
F0
F0
F8
78
7C
7E
3F
1F
1F
0F
03
01
ENDCHAR
STARTCHAR 005C
ENCODING 92
SWIDTH 487 0
DWIDTH 21 0
BBX 17 36 2 -5
BITMAP
F80000
F80000
780000
7C0000
7C0000
3C0000
3E0000
3E0000
1F0000
1F0000
1F0000
0F8000
0F8000
0F8000
07C000
07C000
07C000
03E000
03E000
03E000
01F000
01F000
01F000
00F800
00F800
00F800
007C00
007C00
007C00
003E00
003E00
003E00
001F00
001F00
001F00
000F80
ENDCHAR
STARTCHAR 005D
ENCODING 93
SWIDTH 418 0
DWIDTH 18 0
BBX 8 44 4 -11
BITMAP
80
E0
F0
F8
FC
FC
7E
3E
1F
1F
0F
0F
0F
0F
0F
0F
0F
0F
0F
0F
0F
0F
0F
0F
0F
0F
0F
0F
0F
0F
0F
0F
0F
0F
1F
1E
3E
7E
FC
F8
F8
E0
C0
80
ENDCHAR
STARTCHAR 005E
ENCODING 94
SWIDTH 603 0
DWIDTH 26 0
BBX 20 17 3 15
BITMAP
00F000
01F800
01F800
03FC00
03FC00
07BE00
079E00
0F9F00
0F0F00
1F0F80
1E0780
3E07C0
3C03C0
7C03C0
7803E0
F801E0
F001F0
ENDCHAR
STARTCHAR 005F
ENCODING 95
SWIDTH 510 0
DWIDTH 22 0
BBX 22 2 0 -6
BITMAP
FFFFFC
FFFFFC
ENDCHAR
STARTCHAR 0060
ENCODING 96
SWIDTH 557 0
DWIDTH 24 0
BBX 11 8 5 27
BITMAP
6000
7800
FE00
7F80
1FC0
0FE0
03E0
00C0
ENDCHAR
STARTCHAR 0061
ENCODING 97
SWIDTH 696 0
DWIDTH 30 0
BBX 24 26 2 -1
BITMAP
007E00
03FFCF
07FFEF
0FFFFF
1F81FF
3E007F
3C003F
7C003F
78001F
F8001F
F0000F
F0000F
F0000F
F0000F
F0000F
F0000F
F8001F
78001F
7C003F
3E003F
3F00FF
1F81FF
0FFFEF
07FFEF
03FF8F
00FE00
ENDCHAR
STARTCHAR 0062
ENCODING 98
SWIDTH 696 0
DWIDTH 30 0
BBX 25 33 3 -1
BITMAP
F0000000
F0000000
F0000000
F0000000
F0000000
F0000000
F0000000
F07F0000
F1FFC000
F7FFF000
FFFFF800
FFC1FC00
FF007E00
FE003E00
FC001F00
F8000F00
F8000F80
F0000780
F0000780
F0000780
F0000780
F0000780
F0000780
F8000F80
F8000F00
FC001F00
FE003E00
FF007E00
FFC1FC00
FFFFF800
F7FFF000
F1FFE000
007F0000
ENDCHAR
STARTCHAR 0063
ENCODING 99
SWIDTH 627 0
DWIDTH 27 0
BBX 23 26 2 -1
BITMAP
007E00
03FFC0
07FFE0
0FFFF0
1F83F8
3E00FC
3C007E
78003E
78003E
F80000
F00000
F00000
F00000
F00000
F00000
F00000
F80000
78003E
7C003E
3C007E
3E00FC
1F83F8
0FFFF0
07FFE0
03FFC0
00FE00
ENDCHAR
STARTCHAR 0064
ENCODING 100
SWIDTH 696 0
DWIDTH 30 0
BBX 24 33 2 -1
BITMAP
00000F
00000F
00000F
00000F
00000F
00000F
00000F
007E0F
03FFCF
07FFEF
0FFFFF
1F81FF
3F007F
3C003F
7C003F
78001F
F8001F
F0000F
F0000F
F0000F
F0000F
F0000F
F0000F
F8001F
78001F
7C003F
7E003F
3F007F
1FC1FF
0FFFFF
07FFEF
03FF8F
00FE00
ENDCHAR
STARTCHAR 0065
ENCODING 101
SWIDTH 650 0
DWIDTH 28 0
BBX 24 26 2 -1
BITMAP
007E00
03FFC0
07FFE0
0FFFF0
1F81F8
3E007C
3C003C
78001E
78001E
70000F
F0000F
F0000F
FFFFFF
FFFFFF
FFFFFF
F00000
F80000
780000
7C001E
3C003E
3F007C
1FC1F8
0FFFF0
07FFE0
03FFC0
007E00
ENDCHAR
STARTCHAR 0066
ENCODING 102
SWIDTH 278 0
DWIDTH 12 0
BBX 10 32 1 0
BITMAP
03C0
0FC0
1FC0
1FC0
3F00
3C00
3C00
3C00
FFC0
FFC0
FFC0
FFC0
3C00
3C00
3C00
3C00
3C00
3C00
3C00
3C00
3C00
3C00
3C00
3C00
3C00
3C00
3C00
3C00
3C00
3C00
3C00
3C00
ENDCHAR
STARTCHAR 0067
ENCODING 103
SWIDTH 696 0
DWIDTH 30 0
BBX 25 34 2 -9
BITMAP
007F0000
01FFE780
07FFF780
0FFFFF80
1FC1FF80
3F007F80
3E001F80
7C001F80
78000F80
78000F80
F0000780
F0000780
F0000780
F0000780
F0000780
F0000780
78000F80
78000F80
7C001F80
3E003F80
3F007F80
1FC1FF80
0FFFFF80
07FFF780
01FFC780
007F0780
00000F00
7C001F00
3E003F00
3F80FE00
1FFFFC00
0FFFF800
03FFE000
00FF8000
ENDCHAR
STARTCHAR 0068
ENCODING 104
SWIDTH 627 0
DWIDTH 27 0
BBX 21 32 3 0
BITMAP
F00000
F00000
F00000
F00000
F00000
F00000
F00000
F0FE00
F3FF80
F7FFC0
FFFFE0
FF07F0
FC01F0
F800F8
F800F8
F00078
F00078
F00078
F00078
F00078
F00078
F00078
F00078
F00078
F00078
F00078
F00078
F00078
F00078
F00078
F00078
F00078
ENDCHAR
STARTCHAR 0069
ENCODING 105
SWIDTH 232 0
DWIDTH 10 0
BBX 4 32 3 0
BITMAP
F0
F0
F0
F0
F0
00
00
00
F0
F0
F0
F0
F0
F0
F0
F0
F0
F0
F0
F0
F0
F0
F0
F0
F0
F0
F0
F0
F0
F0
F0
F0
ENDCHAR
STARTCHAR 006A
ENCODING 106
SWIDTH 255 0
DWIDTH 11 0
BBX 7 41 0 -10
BITMAP
1E
1E
1E
1E
1E
00
00
00
1E
1E
1E
1E
1E
1E
1E
1E
1E
1E
1E
1E
1E
1E
1E
1E
1E
1E
1E
1E
1E
1E
1E
1E
1E
1E
1E
3E
7E
FC
F8
F0
E0
ENDCHAR
STARTCHAR 006B
ENCODING 107
SWIDTH 557 0
DWIDTH 24 0
BBX 19 32 3 0
BITMAP
F00000
F00000
F00000
F00000
F00000
F00000
F00000
F00000
F00FC0
F00F80
F01F00
F03E00
F07E00
F07C00
F0F800
F1F000
F1F000
F3E000
F7C000
FF8000
FFC000
F7E000
F3E000
F1F000
F0F800
F0FC00
F07E00
F03F00
F01F00
F00F80
F00FC0
F007E0
ENDCHAR
STARTCHAR 006C
ENCODING 108
SWIDTH 232 0
DWIDTH 10 0
BBX 4 32 3 0
BITMAP
F0
F0
F0
F0
F0
F0
F0
F0
F0
F0
F0
F0
F0
F0
F0
F0
F0
F0
F0
F0
F0
F0
F0
F0
F0
F0
F0
F0
F0
F0
F0
F0
ENDCHAR
STARTCHAR 006D
ENCODING 109
SWIDTH 975 0
DWIDTH 42 0
BBX 36 25 3 0
BITMAP
00FC01FC00
F3FF07FF00
F7FF8FFF80
FFFFDFFFC0
FE07FE07E0
FC03FC03E0
F801F801F0
F800F800F0
F000F000F0
F000F000F0
F000F000F0
F000F000F0
F000F000F0
F000F000F0
F000F000F0
F000F000F0
F000F000F0
F000F000F0
F000F000F0
F000F000F0
F000F000F0
F000F000F0
F000F000F0
F000F000F0
F000F000F0
ENDCHAR
STARTCHAR 006E
ENCODING 110
SWIDTH 627 0
DWIDTH 27 0
BBX 21 25 3 0
BITMAP
00FE00
F3FF80
F7FFC0
FFFFE0
FF07F0
FC01F0
F800F8
F800F8
F00078
F00078
F00078
F00078
F00078
F00078
F00078
F00078
F00078
F00078
F00078
F00078
F00078
F00078
F00078
F00078
F00078
ENDCHAR
STARTCHAR 006F
ENCODING 111
SWIDTH 673 0
DWIDTH 29 0
BBX 25 26 2 -1
BITMAP
007F0000
01FFC000
07FFF000
0FFFF800
1FC1FC00
3F007E00
3E003E00
7C001F00
78000F00
78000F80
F0000780
F0000780
F0000780
F0000780
F0000780
F0000780
78000F80
78000F00
7C001F00
3E003E00
3F007E00
1FC1FC00
0FFFF800
07FFF000
01FFC000
007F0000
ENDCHAR
STARTCHAR 0070
ENCODING 112
SWIDTH 696 0
DWIDTH 30 0
BBX 24 33 3 -8
BITMAP
007F00
F1FFC0
F3FFE0
F7FFF0
FF83F8
FE00FC
FC007C
FC003E
F8001E
F8001F
F0000F
F0000F
F0000F
F0000F
F0000F
F0000F
F8001F
F8001E
FC003E
FC003E
FF007C
FF81F8
FFFFF8
F7FFE0
F1FFC0
F07F00
F00000
F00000
F00000
F00000
F00000
F00000
F00000
ENDCHAR
STARTCHAR 0071
ENCODING 113
SWIDTH 696 0
DWIDTH 30 0
BBX 24 33 2 -8
BITMAP
007E00
03FFCF
07FFEF
0FFFFF
1F81FF
3F007F
3C003F
7C003F
78001F
F8001F
F0000F
F0000F
F0000F
F0000F
F0000F
F0000F
F8001F
78001F
7C003F
3E003F
3F007F
1FC1FF
0FFFFF
07FFEF
03FF8F
007E0F
00000F
00000F
00000F
00000F
00000F
00000F
00000F
ENDCHAR
STARTCHAR 0072
ENCODING 114
SWIDTH 325 0
DWIDTH 14 0
BBX 10 24 3 0
BITMAP
F1C0
F7C0
FFC0
FFC0
FE00
FC00
F800
F800
F000
F000
F000
F000
F000
F000
F000
F000
F000
F000
F000
F000
F000
F000
F000
F000
ENDCHAR
STARTCHAR 0073
ENCODING 115
SWIDTH 418 0
DWIDTH 18 0
BBX 15 26 1 -1
BITMAP
07E0
0FF0
1FFC
3FFC
7C7E
783E
783E
7800
7C00
7E00
3FC0
3FF0
1FF8
07FC
01FC
007E
003E
F01E
F01E
F01E
F81E
7C3C
7FFC
3FF8
1FF0
07C0
ENDCHAR
STARTCHAR 0074
ENCODING 116
SWIDTH 278 0
DWIDTH 12 0
BBX 11 32 0 0
BITMAP
1E00
1E00
1E00
1E00
1E00
1E00
1E00
1E00
FFE0
FFE0
FFE0
FFE0
1E00
1E00
1E00
1E00
1E00
1E00
1E00
1E00
1E00
1E00
1E00
1E00
1E00
1E00
1E00
1E00
1E00
1E00
1E00
1E00
ENDCHAR
STARTCHAR 0075
ENCODING 117
SWIDTH 627 0
DWIDTH 27 0
BBX 21 25 3 -1
BITMAP
F00078
F00078
F00078
F00078
F00078
F00078
F00078
F00078
F00078
F00078
F00078
F00078
F00078
F00078
F00078
F00078
F00078
F800F8
7800F8
7C01F8
7F07F8
3FFFF8
1FFF78
0FFE78
01F800
ENDCHAR
STARTCHAR 0076
ENCODING 118
SWIDTH 534 0
DWIDTH 23 0
BBX 22 24 1 0
BITMAP
F8007C
780078
7C00F8
7C00F8
3C00F0
3E01F0
1E01E0
1F01E0
1F03E0
0F03C0
0F87C0
0787C0
078780
07CF80
03CF00
03CF00
01FF00
01FE00
01FE00
00FC00
00FC00
00FC00
007800
007800
ENDCHAR
STARTCHAR 0077
ENCODING 119
SWIDTH 789 0
DWIDTH 34 0
BBX 33 24 1 0
BITMAP
F801C00F80
7801C00F00
7C03E01F00
7C03E01F00
3C03E01E00
3E07F03E00
3E07F03E00
1E07F03C00
1F0F787C00
0F0F787C00
0F0F787800
0F9E3CF800
079E3CF000
079E3CF000
07FC1FF000
03FC1FE000
03FC1FE000
03F80FE000
01F80FC000
01F80FC000
00F0078000
00F0078000
00F0078000
0060030000
ENDCHAR
STARTCHAR 0078
ENCODING 120
SWIDTH 510 0
DWIDTH 22 0
BBX 22 24 0 0
BITMAP
7C00F8
7E01F0
3E03F0
1F03E0
1F87C0
0F8FC0
07CF80
07FF80
03FF00
01FE00
01FE00
00FC00
00FC00
01FE00
03FF00
03FF00
07CF80
0FCFC0
0F87C0
1F03E0
3F03F0
3E01F0
7C00F8
FC00FC
ENDCHAR
STARTCHAR 0079
ENCODING 121
SWIDTH 580 0
DWIDTH 25 0
BBX 24 32 0 -8
BITMAP
F8001F
78001E
7C003E
7C003E
3E007C
3E007C
1E0078
1F00F8
1F00F0
0F01F0
0F81F0
0781E0
07C3E0
07C3C0
03C3C0
03E7C0
01E780
01FF80
00FF00
00FF00
00FF00
007E00
007E00
003C00
007C00
007800
00F800
00F800
00F000
01F000
01E000
03E000
ENDCHAR
STARTCHAR 007A
ENCODING 122
SWIDTH 418 0
DWIDTH 18 0
BBX 17 24 0 0
BITMAP
7FFF00
7FFF00
7FFF00
7FFF00
001F00
003E00
003E00
007C00
00F800
00F800
01F000
03E000
03E000
07C000
0F8000
1F0000
1F0000
3E0000
7C0000
7C0000
FFFF80
FFFF80
FFFF80
FFFF80
ENDCHAR
STARTCHAR 007B
ENCODING 123
SWIDTH 325 0
DWIDTH 14 0
BBX 12 41 1 -9
BITMAP
01F0
03F0
07F0
0FC0
0F00
0F00
0F00
0F00
0F00
0F00
0F00
0F00
0F00
0F00
0F00
0F00
1F00
3F00
FE00
F800
FC00
FE00
3F00
1F00
0F00
0F00
0F00
0F00
0F00
0F00
0F00
0F00
0F00
0F00
0F00
0F00
0F00
0F80
07F0
03F0
01F0
ENDCHAR
STARTCHAR 007C
ENCODING 124
SWIDTH 557 0
DWIDTH 24 0
BBX 4 36 10 -5
BITMAP
F0
F0
F0
F0
F0
F0
F0
F0
F0
F0
F0
F0
F0
F0
F0
F0
F0
F0
F0
F0
F0
F0
F0
F0
F0
F0
F0
F0
F0
F0
F0
F0
F0
F0
F0
F0
ENDCHAR
STARTCHAR 007D
ENCODING 125
SWIDTH 325 0
DWIDTH 14 0
BBX 12 41 1 -9
BITMAP
F800
FC00
FE00
3F00
0F00
0F00
0F00
0F00
0F00
0F00
0F00
0F00
0F00
0F00
0F00
0F00
0F80
0FC0
07F0
03F0
01F0
07F0
07C0
0F80
0F00
0F00
0F00
0F00
0F00
0F00
0F00
0F00
0F00
0F00
0F00
0F00
0F00
1F00
FE00
FC00
F800
ENDCHAR
STARTCHAR 007E
ENCODING 126
SWIDTH 603 0
DWIDTH 26 0
BBX 20 7 3 7
BITMAP
1F0020
3FE060
7FF8F0
FFFFF0
E0FFE0
403FC0
400F80
ENDCHAR
STARTCHAR 00A1
ENCODING 161
SWIDTH 278 0
DWIDTH 12 0
BBX 4 32 4 -8
BITMAP
F0
F0
F0
F0
F0
00
00
00
F0
F0
F0
F0
F0
F0
F0
F0
F0
F0
F0
F0
F0
F0
F0
F0
F0
F0
F0
F0
F0
F0
F0
F0
ENDCHAR
STARTCHAR 00A2
ENCODING 162
SWIDTH 557 0
DWIDTH 24 0
BBX 20 29 2 3
BITMAP
00F000
00F000
00F000
00F000
01FC00
07FF00
1FFF80
3FFFC0
3FFFE0
7E07E0
7C03F0
F80000
F00000
F00000
F00000
F00000
F00000
F80000
780000
7C03E0
3F07E0
3FFFC0
1FFF80
0FFF00
03FC00
00F000
00F000
00F000
00F000
ENDCHAR
STARTCHAR 00A3
ENCODING 163
SWIDTH 557 0
DWIDTH 24 0
BBX 23 33 0 0
BITMAP
00FC00
03FF80
0FFFC0
1FFFE0
1F87F0
3E01F8
3C00F8
7C00F8
78007C
780000
780000
780000
780000
7C0000
3C0000
FFFF00
FFFF00
FFFF00
FFFF00
07C000
03E000
01F03E
00F01E
00F01E
00F01E
00F01E
00F03E
00F07C
01F0FC
3FFFF8
3FFFF0
3FFFE0
3FFF80
ENDCHAR
STARTCHAR 00A4
ENCODING 164
SWIDTH 557 0
DWIDTH 24 0
BBX 20 20 2 4
BITMAP
600060
F1F8F0
FFFFF0
7FFFE0
3FFFC0
3F0FC0
3C03C0
7C03E0
7801E0
7801E0
7801E0
7801E0
7C03E0
3C03C0
3F0FC0
3FFFC0
7FFFE0
FFFFF0
F1F8F0
600060
ENDCHAR
STARTCHAR 00A5
ENCODING 165
SWIDTH 557 0
DWIDTH 24 0
BBX 22 32 1 0
BITMAP
F0003C
F8007C
7C0078
7C00F8
3E01F0
3E01F0
1F03E0
1F03E0
0F87C0
078780
07CF80
FFCFFC
FFFFFC
FFFFFC
FFFFFC
00FC00
00FC00
007800
007800
FFFFFC
FFFFFC
FFFFFC
FFFFFC
007800
007800
007800
007800
007800
007800
007800
007800
007800
ENDCHAR
STARTCHAR 00A6
ENCODING 166
SWIDTH 557 0
DWIDTH 24 0
BBX 4 36 10 -4
BITMAP
F0
F0
F0
F0
F0
F0
F0
F0
F0
F0
F0
F0
F0
F0
00
00
00
00
00
00
00
F0
F0
F0
F0
F0
F0
F0
F0
F0
F0
F0
F0
F0
F0
F0
ENDCHAR
STARTCHAR 00A7
ENCODING 167
SWIDTH 580 0
DWIDTH 25 0
BBX 20 42 2 -10
BITMAP
01F800
07FE00
0FFF00
1FFF80
1F0F80
3E07C0
3C03C0
3C03C0
3C0000
3E0000
1F0000
1FC000
1FF000
3FF800
7FFE00
78FF80
F03FC0
F00FE0
F003E0
F001F0
F800F0
FC00F0
7F00F0
3FC0F0
1FF1E0
0FFFE0
03FFC0
00FF80
003F80
000FC0
0007E0
0003E0
0001E0
7801E0
7801E0
7C01E0
3C03E0
3F07C0
1FFF80
0FFF80
07FE00
01F800
ENDCHAR
STARTCHAR 00A8
ENCODING 168
SWIDTH 557 0
DWIDTH 24 0
BBX 11 5 6 28
BITMAP
F1E0
F1E0
F1E0
F1E0
F1E0
ENDCHAR
STARTCHAR 00A9
ENCODING 169
SWIDTH 789 0
DWIDTH 34 0
BBX 32 33 1 -1
BITMAP
000FF000
007FFE00
01FFFF80
03F01FC0
07C003E0
0F0000F0
1E07E078
3C1FF83C
383FFE1C
787C1E1E
70F00F0E
70E0070E
E0E00707
E1C00007
E1C00007
E1C00007
E1C00007
E1C00007
E1C00007
E0E00707
70E0070E
70F00F0E
787C1E0E
383FFC1C
3C1FF83C
1E07E038
1E000078
0F8001F0
07C003E0
03F81FC0
00FFFF00
007FFC00
000FF000
ENDCHAR
STARTCHAR 00AA
ENCODING 170
SWIDTH 394 0
DWIDTH 17 0
BBX 13 13 1 19
BITMAP
0FB8
3FF8
7FF8
78F8
F078
E038
E038
E038
F078
78F8
7FF8
3FF8
0FB8
ENDCHAR
STARTCHAR 00AB
ENCODING 171
SWIDTH 371 0
DWIDTH 16 0
BBX 14 16 1 4
BITMAP
0404
0C0C
1C1C
3C3C
7C7C
F8F8
F0F0
E0E0
E0E0
F0F0
F8F8
7C7C
3C3C
1C1C
0C0C
0404
ENDCHAR
STARTCHAR 00AC
ENCODING 172
SWIDTH 603 0
DWIDTH 26 0
BBX 21 13 2 4
BITMAP
FFFFF8
FFFFF8
FFFFF8
FFFFF8
000078
000078
000078
000078
000078
000078
000078
000078
000078
ENDCHAR
STARTCHAR 00AE
ENCODING 174
SWIDTH 789 0
DWIDTH 34 0
BBX 32 33 1 -1
BITMAP
0007F000
003FFE00
00FFFF80
03F01FC0
07C003E0
0F0000F0
1E000078
1C7FF83C
387FFE1C
787FFE1E
70700F0E
7070070E
F0700707
E0700707
E0700E07
E07FFE07
E07FF807
E07FFE07
E0700F07
E0700707
7070070E
7070070E
7870070E
3870071C
3C70071C
1E700738
0F000078
0F8000F0
07E003E0
03F80FC0
00FFFF80
003FFE00
000FF000
ENDCHAR
STARTCHAR 00AF
ENCODING 175
SWIDTH 557 0
DWIDTH 24 0
BBX 15 3 4 29
BITMAP
FFFE
FFFE
FFFE
ENDCHAR
STARTCHAR 00B0
ENCODING 176
SWIDTH 394 0
DWIDTH 17 0
BBX 13 13 2 18
BITMAP
0F80
3FE0
3FF0
7870
F038
E038
E038
E038
F038
78F0
3FF0
1FE0
0780
ENDCHAR
STARTCHAR 00B1
ENCODING 177
SWIDTH 603 0
DWIDTH 26 0
BBX 22 25 2 -1
BITMAP
007800
007800
007800
007800
007800
007800
007800
FFFFFC
FFFFFC
FFFFFC
FFFFFC
007800
007800
007800
007800
007800
007800
007800
000000
000000
000000
FFFFFC
FFFFFC
FFFFFC
FFFFFC
ENDCHAR
STARTCHAR 00B2
ENCODING 178
SWIDTH 348 0
DWIDTH 15 0
BBX 12 19 1 13
BITMAP
0F00
3FC0
7FE0
70F0
E070
E070
E070
0070
00E0
01E0
03C0
0780
0F00
1E00
3C00
7800
FFF0
FFF0
FFF0
ENDCHAR
STARTCHAR 00B3
ENCODING 179
SWIDTH 348 0
DWIDTH 15 0
BBX 12 20 1 12
BITMAP
0F00
3FC0
3FC0
79E0
70E0
00E0
01E0
07C0
07C0
07E0
01E0
00F0
0070
0070
E070
F070
70E0
7FE0
3FC0
1F00
ENDCHAR
STARTCHAR 00B4
ENCODING 180
SWIDTH 557 0
DWIDTH 24 0
BBX 11 9 8 26
BITMAP
0080
01C0
07C0
1FE0
7F80
FF00
FC00
F000
4000
ENDCHAR
STARTCHAR 00B5
ENCODING 181
SWIDTH 627 0
DWIDTH 27 0
BBX 20 32 3 -8
BITMAP
F000F0
F000F0
F000F0
F000F0
F000F0
F000F0
F000F0
F000F0
F000F0
F000F0
F000F0
F000F0
F000F0
F000F0
F000F0
F000F0
F001F0
F801F0
F801F0
FC03F0
FE0FF0
FFFFF0
FFFEF0
F7FCF0
F1F800
F00000
F00000
F00000
F00000
F00000
F00000
F00000
ENDCHAR
STARTCHAR 00B6
ENCODING 182
SWIDTH 627 0
DWIDTH 27 0
BBX 22 38 1 -9
BITMAP
07FFFC
1FFFFC
7FFFFC
7FF83C
FFF83C
FFF83C
FFF83C
FFF83C
FFF83C
FFF83C
FFF83C
7FF83C
3FF83C
1FF83C
07F83C
00783C
00783C
00783C
00783C
00783C
00783C
00783C
00783C
00783C
00783C
00783C
00783C
00783C
00783C
00783C
00783C
00783C
00783C
00783C
00783C
00783C
00783C
00783C
ENDCHAR
STARTCHAR 00B7
ENCODING 183
SWIDTH 278 0
DWIDTH 12 0
BBX 4 4 4 9
BITMAP
F0
F0
F0
F0
ENDCHAR
STARTCHAR 00B8
ENCODING 184
SWIDTH 557 0
DWIDTH 24 0
BBX 8 11 8 -10
BITMAP
38
30
30
7E
7E
27
03
C3
E7
7E
3C
ENDCHAR
STARTCHAR 00B9
ENCODING 185
SWIDTH 348 0
DWIDTH 15 0
BBX 6 19 4 13
BITMAP
FC
FC
FC
1C
1C
1C
1C
1C
1C
1C
1C
1C
1C
1C
1C
1C
1C
1C
1C
ENDCHAR
STARTCHAR 00BA
ENCODING 186
SWIDTH 394 0
DWIDTH 17 0
BBX 14 13 1 19
BITMAP
0FC0
1FF0
3FF8
7878
F03C
E01C
E01C
E01C
F03C
7878
3FF0
1FE0
0FC0
ENDCHAR
STARTCHAR 00BB
ENCODING 187
SWIDTH 371 0
DWIDTH 16 0
BBX 14 16 1 5
BITMAP
8080
C0C0
E0E0
F0F0
F8F8
7C7C
3C3C
1C1C
1C1C
3C3C
7C7C
F8F8
F0F0
E0E0
C0C0
8080
ENDCHAR
STARTCHAR 00BC
ENCODING 188
SWIDTH 696 0
DWIDTH 30 0
BBX 29 32 0 0
BITMAP
FC001C00
FC001C00
FC003800
1C003800
1C007000
1C007000
1C00F000
1C00E000
1C01E000
1C01C000
1C01C000
1C038000
1C038000
1C0700E0
1C0701E0
1C0E03E0
1C0E07E0
1C1E07E0
1C1C0EE0
001C1EE0
00381CE0
003838E0
007078E0
007070E0
00E0F0E0
00E1E0E0
01C1FFF8
01C1FFF8
0381FFF8
038000E0
038000E0
070000E0
ENDCHAR
STARTCHAR 00BD
ENCODING 189
SWIDTH 720 0
DWIDTH 31 0
BBX 30 32 0 0
BITMAP
FC003800
FC007800
FC007000
1C007000
1C00E000
1C00E000
1C01C000
1C01C000
1C038000
1C038000
1C078000
1C070000
1C070000
1C0E07C0
1C0E1FF0
1C1C3FF8
1C1C783C
1C38701C
1C38701C
0070701C
0070003C
00700078
00E000F8
00E001F0
01C003E0
01C007C0
03800F80
03801F00
07003C00
07007FFC
06007FFC
0E007FFC
ENDCHAR
STARTCHAR 00BE
ENCODING 190
SWIDTH 789 0
DWIDTH 34 0
BBX 32 32 1 0
BITMAP
0F000380
3FC00380
3FC00700
79E00700
70E00E00
00E00E00
01E01C00
07C01C00
07C03C00
07E03800
01E07800
00F07000
00707000
0070E01C
E070E03C
F071C07C
70E1C07C
7FE380FC
3FC381FC
1F0703DC
0007039C
000E079C
000E0F1C
000E1E1C
001C1E1C
001C3C1C
00383FFF
00383FFF
00703FFF
0070001C
00E0001C
00E0001C
ENDCHAR
STARTCHAR 00BF
ENCODING 191
SWIDTH 510 0
DWIDTH 22 0
BBX 18 33 2 -9
BITMAP
01E000
01E000
01E000
01E000
01E000
000000
000000
000000
01E000
01E000
01E000
03E000
03C000
07C000
07C000
0F8000
1F0000
3E0000
7E0000
7C0000
F80000
F00000
F00000
F00000
F003C0
F007C0
F807C0
7C0F80
7E1F80
3FFF00
1FFE00
0FFC00
03F000
ENDCHAR
STARTCHAR 00C0
ENCODING 192
SWIDTH 673 0
DWIDTH 29 0
BBX 28 42 1 1
BITMAP
00400000
00F00000
01FC0000
00FF0000
003FC000
001FE000
0007C000
0001C000
00000000
00000000
000F0000
001F8000
001F8000
001F8000
003FC000
003FC000
003FE000
007FE000
0079E000
00F9F000
00F9F000
00F0F000
01F0F800
01F0F800
01E07800
03E07C00
03E07C00
07C03E00
07C03E00
07FFFE00
0FFFFF00
0FFFFF00
0FFFFF00
1F000F80
1E000F80
3E0007C0
3E0007C0
3C0007C0
7C0003E0
780003E0
780001E0
F80001F0
ENDCHAR
STARTCHAR 00C1
ENCODING 193
SWIDTH 673 0
DWIDTH 29 0
BBX 28 42 1 0
BITMAP
00002000
0000F000
0001F000
0007F800
001FE000
007F8000
003F0000
003C0000
00100000
00000000
000F8000
001F8000
001F8000
001FC000
003FC000
003FC000
003FE000
007DE000
0079E000
00F9F000
00F8F000
00F0F800
01F0F800
01F07800
01E07C00
03E07C00
03E03C00
07C03E00
07C03E00
07FFFE00
0FFFFF00
0FFFFF00
0FFFFF80
1F000F80
1F000780
3E0007C0
3E0007C0
3E0003C0
7C0003E0
7C0003E0
780001E0
F80001F0
ENDCHAR
STARTCHAR 00C2
ENCODING 194
SWIDTH 673 0
DWIDTH 29 0
BBX 28 40 1 0
BITMAP
001F8000
003FC000
007FE000
00F9F000
01F0F800
03E0FC00
00000000
00000000
000F0000
001F8000
001F8000
001F8000
003FC000
003FC000
003FC000
007FE000
0079E000
00F9F000
00F9F000
00F0F000
01F0F800
01F0F800
01E07800
03E07C00
03E07C00
07C03E00
07C03E00
07FFFE00
0FFFFF00
0FFFFF00
0FFFFF00
1F000F80
1F000F80
3E0007C0
3E0007C0
3E0007C0
7C0003E0
7C0003E0
780003E0
F80001F0
ENDCHAR
STARTCHAR 00C3
ENCODING 195
SWIDTH 673 0
DWIDTH 29 0
BBX 28 39 1 0
BITMAP
00FC1800
03FFF800
01FFFC00
0083F000
00000000
00000000
00000000
000F0000
001F8000
001F8000
001F8000
003FC000
003FC000
003FE000
007FE000
0079E000
00F9F000
00F9F000
00F0F000
01F0F800
01F0F800
01E07C00
03E07C00
03E07C00
07C03E00
07C03E00
07FFFE00
0FFFFF00
0FFFFF00
0FFFFF00
1F000F80
1F000F80
3E0007C0
3E0007C0
3E0003C0
7C0003E0
7C0003E0
780001E0
F80001F0
ENDCHAR
STARTCHAR 00C4
ENCODING 196
SWIDTH 673 0
DWIDTH 29 0
BBX 28 40 1 0
BITMAP
00F1E000
00F1E000
00F1E000
00F1E000
00F1E000
00000000
00000000
00000000
001F0000
001F0000
003F8000
003F8000
003FC000
007FC000
007BC000
007BE000
00FBE000
00F9F000
00F1F000
01F1F000
01F0F800
01E0F800
03E0F800
03E07C00
07E07C00
07C07E00
07C03E00
0FFFFE00
0FFFFF00
0FFFFF00
1FFFFF00
1F001F80
1E000F80
3E000FC0
3E0007C0
3C0007C0
7C0007E0
780003E0
780003E0
F80001F0
ENDCHAR
STARTCHAR 00C5
ENCODING 197
SWIDTH 673 0
DWIDTH 29 0
BBX 28 43 1 0
BITMAP
000F0000
001F8000
003FC000
0079E000
0070E000
0070E000
0078E000
003FC000
001FC000
000F0000
00000000
000F0000
000F8000
001F8000
001F8000
003FC000
003FC000
003FC000
007DE000
0079E000
0079F000
00F9F000
00F0F000
01F0F800
01F0F800
01E07800
03E07C00
03E07C00
07C03E00
07C03E00
07FFFE00
0FFFFF00
0FFFFF00
0FFFFF00
1F000F80
1F000F80
3E0007C0
3E0007C0
3C0003C0
7C0003E0
7C0003E0
780001E0
F80001F0
ENDCHAR
STARTCHAR 00C6
ENCODING 198
SWIDTH 929 0
DWIDTH 40 0
BBX 36 32 1 0
BITMAP
00000FFFF0
00000FFFF0
00001FFFF0
00003FFFF0
00003F8000
00007F8000
0000FF8000
0000FF8000
0001F78000
0003E78000
0003E78000
0007C78000
000FC78000
000F878000
001F07FFF0
003F07FFF0
003E07FFF0
007C07FFF0
00FC078000
00FFFF8000
01FFFF8000
03FFFF8000
03FFFF8000
07C0078000
0FC0078000
0F80078000
1F00078000
3F00078000
3E0007FFF0
7C0007FFF0
FC0007FFF0
F80007FFF0
ENDCHAR
STARTCHAR 00C7
ENCODING 199
SWIDTH 789 0
DWIDTH 34 0
BBX 30 43 2 -11
BITMAP
000FF000
007FFE00
01FFFF80
03FFFFC0
07F81FE0
0FC007F0
1F8001F8
1F0000FC
3E00007C
3C000000
78000000
78000000
F8000000
F0000000
F0000000
F0000000
F0000000
F0000000
F0000000
F0000000
78000000
78000000
7C000000
3C000000
3E000000
1F0000FC
1F8001F8
0FC007F0
07F81FE0
03FFFFC0
01FFFF80
007FFE00
000FF000
00060000
00060000
000FC000
0007E000
0000E000
00006000
00186000
001CE000
000FC000
00078000
ENDCHAR
STARTCHAR 00C8
ENCODING 200
SWIDTH 510 0
DWIDTH 22 0
BBX 17 42 3 1
BITMAP
380000
3C0000
7F0000
3FC000
0FF000
03F000
01F000
006000
000000
000000
FFFF80
FFFF80
FFFF80
FFFF80
F00000
F00000
F00000
F00000
F00000
F00000
F00000
F00000
F00000
F00000
FFFF80
FFFF80
FFFF80
FFFF80
F00000
F00000
F00000
F00000
F00000
F00000
F00000
F00000
F00000
F00000
FFFF80
FFFF80
FFFF80
FFFF80
ENDCHAR
STARTCHAR 00C9
ENCODING 201
SWIDTH 510 0
DWIDTH 22 0
BBX 17 43 3 0
BITMAP
000800
003C00
007C00
01FE00
07F800
1FE000
1F8000
0F0000
0C0000
000000
000000
FFFF80
FFFF80
FFFF80
FFFF80
F00000
F00000
F00000
F00000
F00000
F00000
F00000
F00000
F00000
F00000
FFFF80
FFFF80
FFFF80
FFFF80
F00000
F00000
F00000
F00000
F00000
F00000
F00000
F00000
F00000
F00000
FFFF80
FFFF80
FFFF80
FFFF80
ENDCHAR
STARTCHAR 00CA
ENCODING 202
SWIDTH 510 0
DWIDTH 22 0
BBX 17 41 3 0
BITMAP
07C000
0FE000
1FF000
3EF800
7C7E00
F83F00
000000
000000
000000
FFFF80
FFFF80
FFFF80
FFFF80
F00000
F00000
F00000
F00000
F00000
F00000
F00000
F00000
F00000
F00000
FFFF80
FFFF80
FFFF80
FFFF80
F00000
F00000
F00000
F00000
F00000
F00000
F00000
F00000
F00000
F00000
FFFF80
FFFF80
FFFF80
FFFF80
ENDCHAR
STARTCHAR 00CB
ENCODING 203
SWIDTH 510 0
DWIDTH 22 0
BBX 16 40 3 0
BITMAP
1E78
1E78
1E78
1E78
1E78
0000
0000
0000
FFFF
FFFF
FFFF
FFFF
F000
F000
F000
F000
F000
F000
F000
F000
F000
F000
FFFF
FFFF
FFFF
FFFF
F000
F000
F000
F000
F000
F000
F000
F000
F000
F000
FFFF
FFFF
FFFF
FFFF
ENDCHAR
STARTCHAR 00CC
ENCODING 204
SWIDTH 255 0
DWIDTH 11 0
BBX 11 42 -3 1
BITMAP
6000
7800
FE00
7F00
1FC0
0FE0
03C0
00C0
0000
0000
03C0
03C0
03C0
03C0
03C0
03C0
03C0
03C0
03C0
03C0
03C0
03C0
03C0
03C0
03C0
03C0
03C0
03C0
03C0
03C0
03C0
03C0
03C0
03C0
03C0
03C0
03C0
03C0
03C0
03C0
03C0
03C0
ENDCHAR
STARTCHAR 00CD
ENCODING 205
SWIDTH 255 0
DWIDTH 11 0
BBX 12 43 2 0
BITMAP
0040
01E0
03E0
0FF0
3FC0
FF00
7E00
7800
2000
0000
0000
7800
7800
7800
7800
7800
7800
7800
7800
7800
7800
7800
7800
7800
7800
7800
7800
7800
7800
7800
7800
7800
7800
7800
7800
7800
7800
7800
7800
7800
7800
7800
7800
ENDCHAR
STARTCHAR 00CE
ENCODING 206
SWIDTH 255 0
DWIDTH 11 0
BBX 15 41 -3 0
BITMAP
03C0
07E0
0FF0
1F78
3E7C
FC3E
0000
0000
0000
03C0
03C0
03C0
03C0
03C0
03C0
03C0
03C0
03C0
03C0
03C0
03C0
03C0
03C0
03C0
03C0
03C0
03C0
03C0
03C0
03C0
03C0
03C0
03C0
03C0
03C0
03C0
03C0
03C0
03C0
03C0
03C0
ENDCHAR
STARTCHAR 00CF
ENCODING 207
SWIDTH 255 0
DWIDTH 11 0
BBX 10 40 0 0
BITMAP
F3C0
F3C0
F3C0
F3C0
F3C0
0000
0000
0000
1E00
1E00
1E00
1E00
1E00
1E00
1E00
1E00
1E00
1E00
1E00
1E00
1E00
1E00
1E00
1E00
1E00
1E00
1E00
1E00
1E00
1E00
1E00
1E00
1E00
1E00
1E00
1E00
1E00
1E00
1E00
1E00
ENDCHAR
STARTCHAR 00D0
ENCODING 208
SWIDTH 743 0
DWIDTH 32 0
BBX 29 32 0 0
BITMAP
1FFFC000
1FFFF800
1FFFFC00
1FFFFF00
1E01FF80
1E001FC0
1E000FC0
1E0007E0
1E0003E0
1E0001F0
1E0000F0
1E0000F0
1E0000F8
1E000078
FFFF0078
FFFF0078
FFFF0078
FFFF0078
1E000078
1E000078
1E0000F8
1E0000F0
1E0000F0
1E0001F0
1E0003E0
1E0007E0
1E001FC0
1E01FF80
1FFFFF00
1FFFFC00
1FFFF800
1FFFC000
ENDCHAR
STARTCHAR 00D1
ENCODING 209
SWIDTH 743 0
DWIDTH 32 0
BBX 25 39 3 0
BITMAP
03F02000
0FFFF000
07FFF800
0207E000
00000000
00000000
00000000
F8000780
F8000780
FC000780
FE000780
FF000780
FF000780
FF800780
FFC00780
F7C00780
F3E00780
F3F00780
F1F00780
F0F80780
F0FC0780
F07C0780
F03E0780
F03F0780
F01F0780
F00F8780
F00FC780
F007C780
F003E780
F003F780
F001F780
F000FF80
F000FF80
F0007F80
F0003F80
F0001F80
F0001F80
F0000F80
F0000780
ENDCHAR
STARTCHAR 00D2
ENCODING 210
SWIDTH 836 0
DWIDTH 36 0
BBX 32 42 2 0
BITMAP
001C0000
001F0000
003FC000
000FE000
0007F800
0001F800
00007000
00003000
00000000
000FF000
003FFE00
00FFFF80
03FFFFC0
07F80FE0
0FC003F0
1F8000F8
1F00007C
3E00007C
3C00003E
7C00001E
7800001E
7800001F
F000000F
F000000F
F000000F
F000000F
F000000F
F000000F
F000000F
F800001F
7800001E
7C00001E
3C00003E
3E00007C
1F000078
1F8000F8
0FC003F0
07F80FE0
03FFFFC0
00FFFF80
003FFE00
000FF000
ENDCHAR
STARTCHAR 00D3
ENCODING 211
SWIDTH 836 0
DWIDTH 36 0
BBX 32 44 2 -1
BITMAP
00000800
00003C00
00007C00
0001FE00
0007F800
001FE000
000FC000
000F0000
00040000
00000000
00000000
000FF000
007FFE00
00FFFF80
03FFFFC0
07F80FE0
0FC003F0
1F8001F8
1F0000FC
3E00007C
3C00003E
7C00001E
7800001E
7800001F
F000000F
F000000F
F000000F
F000000F
F000000F
F000000F
F000000F
F800001F
7800001E
7C00001E
3C00003E
3E00007C
1F000078
1F8001F8
0FC003F0
07F80FE0
03FFFFC0
00FFFF80
007FFE00
000FF000
ENDCHAR
STARTCHAR 00D4
ENCODING 212
SWIDTH 836 0
DWIDTH 36 0
BBX 32 42 2 -1
BITMAP
0007E000
000FF000
001FF800
003E7C00
007E3E00
00FC3F00
00000000
00000000
00000000
000FF000
007FFE00
00FFFF80
03FFFFC0
07F01FE0
0FC003F0
1F8001F8
1F0000FC
3E00007C
3C00003E
7C00003E
7800001E
7800001F
F000000F
F000000F
F000000F
F000000F
F000000F
F000000F
F000000F
F800001F
7800001E
7C00001E
3C00003E
3E00007C
1F0000F8
1F8001F8
0FC003F0
07F80FE0
03FFFFC0
01FFFF00
007FFE00
000FF000
ENDCHAR
STARTCHAR 00D5
ENCODING 213
SWIDTH 836 0
DWIDTH 36 0
BBX 32 40 2 -1
BITMAP
003F0600
00FFFE00
007FFF00
0020FC00
00000000
00000000
00000000
000FF000
007FFE00
00FFFF80
03FFFFC0
07F81FE0
0FC003F0
1F8001F8
1F0000FC
3E00007C
3C00003E
7C00003E
7800001E
7800001F
F000000F
F000000F
F000000F
F000000F
F000000F
F000000F
F000000F
F800001F
7800001E
7C00001E
3C00003E
3E00007C
1F0000F8
1F8001F8
0FC003F0
07F80FE0
03FFFFC0
00FFFF00
007FFE00
000FF000
ENDCHAR
STARTCHAR 00D6
ENCODING 214
SWIDTH 836 0
DWIDTH 36 0
BBX 32 41 2 -1
BITMAP
001E7800
001E7800
001E7800
001E7800
001E7800
00000000
00000000
00000000
000FF000
007FFE00
00FFFF80
03FFFFC0
07F01FE0
0FC003F0
1F8001F8
1F0000FC
3E00007C
3C00003E
7C00003E
7800001E
7800001F
F000000F
F000000F
F000000F
F000000F
F000000F
F000000F
F000000F
F800001F
7800001E
7C00001E
3C00003E
3E00007C
1F0000F8
1F8001F8
0FC003F0
07F80FE0
03FFFFC0
01FFFF00
007FFE00
000FF000
ENDCHAR
STARTCHAR 00D7
ENCODING 215
SWIDTH 603 0
DWIDTH 26 0
BBX 21 21 3 1
BITMAP
100040
3800E0
7C01F0
FE03F8
7F07F0
3F8FE0
1FDFC0
0FFF80
07FF00
03FE00
01FC00
03FE00
07FF00
0FFF80
1FDFC0
3F8FE0
7F07F0
FE03F8
7C01F0
3800E0
100040
ENDCHAR
STARTCHAR 00D8
ENCODING 216
SWIDTH 836 0
DWIDTH 36 0
BBX 32 37 2 -3
BITMAP
00000010
00000038
000FF07C
007FFEFC
00FFFFF8
03FFFFF0
07F01FF0
0FC007F8
1F8007F8
1F000FFC
3E001FFC
3C001F3E
7C003E1E
78007C1E
7800FC1F
F000F80F
F001F00F
F003F00F
F003E00F
F007C00F
F00F800F
F01F800F
F81F001F
783E001E
7C7E001E
7CFC003C
3EF8007C
3FF000F8
1FF001F8
0FE003F0
0FF00FE0
0FFFFFC0
0FFFFF00
1F7FFE00
3E0FF000
1C000000
0C000000
ENDCHAR
STARTCHAR 00D9
ENCODING 217
SWIDTH 650 0
DWIDTH 28 0
BBX 21 43 3 0
BITMAP
0C0000
0F0000
1FC000
0FF000
03FC00
00FC00
007C00
001800
000000
000000
F00078
F00078
F00078
F00078
F00078
F00078
F00078
F00078
F00078
F00078
F00078
F00078
F00078
F00078
F00078
F00078
F00078
F00078
F00078
F00078
F00078
F00078
F00078
F00078
F00078
F800F8
7800F0
7C01F0
3F07E0
3FFFE0
1FFFC0
07FF00
01FC00
ENDCHAR
STARTCHAR 00DA
ENCODING 218
SWIDTH 650 0
DWIDTH 28 0
BBX 21 44 3 -1
BITMAP
000080
0003C0
000FC0
003FE0
007F80
01FE00
01F800
01E000
008000
000000
000000
F00078
F00078
F00078
F00078
F00078
F00078
F00078
F00078
F00078
F00078
F00078
F00078
F00078
F00078
F00078
F00078
F00078
F00078
F00078
F00078
F00078
F00078
F00078
F00078
F00078
F800F8
7800F0
7C01F0
3F07E0
3FFFE0
1FFFC0
07FF00
01FC00
ENDCHAR
STARTCHAR 00DB
ENCODING 219
SWIDTH 650 0
DWIDTH 28 0
BBX 20 42 3 -1
BITMAP
01F800
03FC00
07FE00
0FDF00
1F8F80
3F07C0
000000
000000
000000
F000F0
F000F0
F000F0
F000F0
F000F0
F000F0
F000F0
F000F0
F000F0
F000F0
F000F0
F000F0
F000F0
F000F0
F000F0
F000F0
F000F0
F000F0
F000F0
F000F0
F000F0
F000F0
F000F0
F000F0
F000F0
F801F0
7801E0
7C03E0
3F0FC0
3FFFC0
1FFF80
07FE00
01F800
ENDCHAR
STARTCHAR 00DC
ENCODING 220
SWIDTH 650 0
DWIDTH 28 0
BBX 21 41 3 -1
BITMAP
078F00
078F00
078F00
078F00
078F00
000000
000000
000000
F00078
F00078
F00078
F00078
F00078
F00078
F00078
F00078
F00078
F00078
F00078
F00078
F00078
F00078
F00078
F00078
F00078
F00078
F00078
F00078
F00078
F00078
F00078
F00078
F00078
F800F8
7800F0
7C01F0
3F07E0
3FFFE0
1FFFC0
07FF00
01FC00
ENDCHAR
STARTCHAR 00DD
ENCODING 221
SWIDTH 603 0
DWIDTH 26 0
BBX 24 43 1 0
BITMAP
000040
0001E0
0003E0
000FF0
003FC0
007F80
007E00
007800
002000
000000
000000
FC001F
7C001F
7C003E
3E003E
3E007C
1F007C
1F00F8
0F80F8
0F81F0
07C1F0
07C3E0
03C3E0
03E7C0
01E7C0
01FF80
00FF80
00FF00
007F00
007E00
003C00
003C00
003C00
003C00
003C00
003C00
003C00
003C00
003C00
003C00
003C00
003C00
003C00
ENDCHAR
STARTCHAR 00DE
ENCODING 222
SWIDTH 557 0
DWIDTH 24 0
BBX 20 32 3 0
BITMAP
F00000
F00000
F00000
F00000
F00000
F00000
F00000
FFF800
FFFF00
FFFF80
FFFFC0
F00FE0
F003E0
F001F0
F000F0
F000F0
F000F0
F000F0
F000F0
F001F0
F003E0
F00FE0
FFFFC0
FFFF80
FFFF00
FFF800
F00000
F00000
F00000
F00000
F00000
F00000
ENDCHAR
STARTCHAR 00DF
ENCODING 223
SWIDTH 650 0
DWIDTH 28 0
BBX 22 34 3 -1
BITMAP
03F000
0FFC00
1FFE00
3FFF00
3E1F80
780F80
780780
F003C0
F003C0
F003C0
F003C0
F003C0
F007C0
F00780
F01F80
F0FF00
F0FFC0
F0FFF0
F0FFF0
F001F8
F000F8
F0007C
F0003C
F0003C
F0003C
FF003C
FF003C
FF8078
FF80F8
F7E1F0
F7FFF0
F3FFE0
F1FFC0
003F00
ENDCHAR
STARTCHAR 00E0
ENCODING 224
SWIDTH 696 0
DWIDTH 30 0
BBX 24 36 2 0
BITMAP
01C000
01F000
03F800
01FE00
007F80
001F80
000700
000300
000000
000000
007E00
03FFCF
07FFEF
0FFFFF
1F81FF
3E007F
3C003F
7C003F
78001F
F8001F
F0000F
F0000F
F0000F
F0000F
F0000F
F0000F
F8001F
78001F
7C003F
3E003F
3F00FF
1F81FF
0FFFEF
07FFEF
03FF8F
00FE00
ENDCHAR
STARTCHAR 00E1
ENCODING 225
SWIDTH 696 0
DWIDTH 30 0
BBX 24 36 2 -1
BITMAP
000040
0001E0
0003E0
000FF0
003FC0
00FF00
007E00
007800
002000
000000
007F00
03FFCF
07FFEF
0FFFFF
1FC1FF
3F007F
3E003F
7C001F
78001F
78001F
F0000F
F0000F
F0000F
F0000F
F0000F
F0000F
F8001F
78001F
7C001F
3E003F
3F007F
1FC1FF
0FFFFF
07FFEF
03FFCF
007E00
ENDCHAR
STARTCHAR 00E2
ENCODING 226
SWIDTH 696 0
DWIDTH 30 0
BBX 25 34 2 -1
BITMAP
001F0000
003F8000
007FC000
00FBE000
01F1F000
07E0F800
00000000
00000000
007F0000
01FFC780
07FFF780
0FFFFF80
1FC1FF80
3F007F80
3E001F80
7C001F80
78000F80
78000F80
F0000780
F0000780
F0000780
F0000780
F0000780
F0000780
F8000F80
78000F80
7C001F80
3E003F80
3F007F80
1FC1FF80
0FFFF780
07FFE780
03FFC780
007F0000
ENDCHAR
STARTCHAR 00E3
ENCODING 227
SWIDTH 696 0
DWIDTH 30 0
BBX 25 33 2 -1
BITMAP
01F03000
07FFF000
03FFF800
03FFF000
0001C000
00000000
00000000
007F0000
03FFC780
07FFF780
0FFFFF80
1FC1FF80
3F007F80
3E003F80
7C001F80
78000F80
78000F80
F0000780
F0000780
F0000780
F0000780
F0000780
F0000780
F8000F80
78000F80
7C001F80
3E003F80
3F007F80
1FC1FF80
0FFFF780
07FFE780
03FFC780
007F0000
ENDCHAR
STARTCHAR 00E4
ENCODING 228
SWIDTH 696 0
DWIDTH 30 0
BBX 24 34 2 -1
BITMAP
01E3C0
01E3C0
01E3C0
01E3C0
01E3C0
000000
000000
000000
00FE00
03FF8F
07FFEF
0FFFFF
1F83FF
3E00FF
3C003F
7C003F
78001F
F8001F
F0000F
F0000F
F0000F
F0000F
F0000F
F0000F
F8001F
78001F
7C003F
7C007F
3F00FF
1F83FF
1FFFEF
07FFCF
03FF8F
00FE00
ENDCHAR
STARTCHAR 00E5
ENCODING 229
SWIDTH 696 0
DWIDTH 30 0
BBX 24 37 2 -1
BITMAP
001E00
003F80
007F80
00F1C0
00E1C0
00E1C0
00F3C0
007F80
003F00
001E00
000000
007F00
03FFCF
07FFEF
0FFFFF
1FC1FF
3F007F
3E003F
7C001F
78001F
78001F
F0000F
F0000F
F0000F
F0000F
F0000F
F0000F
F8001F
78001F
7C001F
3E003F
3F007F
1FC1FF
0FFFEF
07FFEF
03FF8F
007E00
ENDCHAR
STARTCHAR 00E6
ENCODING 230
SWIDTH 1138 0
DWIDTH 49 0
BBX 45 26 2 -1
BITMAP
007F0003F800
01FFE79FFE00
07FFF7BFFF00
0FFFFFFFFF80
1F81FFFC0FC0
3F007FF003E0
3C003FE001E0
7C001FE000F0
78000FC000F0
F8000FC00078
F00007800078
F00007800078
F00007FFFFF8
F00007FFFFF8
F00007FFFFF8
F00007800000
F8000F800000
78000FC00000
7C001FE000F0
3C001FE001F0
3F007FF803E0
1FC1FFFE0FC0
0FFFFFFFFF80
07FFF7BFFF00
01FFE79FFE00
007F0003F000
ENDCHAR
STARTCHAR 00E7
ENCODING 231
SWIDTH 627 0
DWIDTH 27 0
BBX 23 36 2 -11
BITMAP
00FE00
03FF80
07FFE0
1FFFF0
1F83F8
3E00FC
7C007C
78003E
78003E
F00000
F00000
F00000
F00000
F00000
F00000
F80000
780000
78003E
7C007C
3E00FC
3F83F8
1FFFF0
0FFFE0
03FF80
00FE00
007000
006000
006000
007C00
007E00
000E00
000600
01C600
00CE00
00FC00
007800
ENDCHAR
STARTCHAR 00E8
ENCODING 232
SWIDTH 650 0
DWIDTH 28 0
BBX 24 36 2 0
BITMAP
038000
03E000
07F800
01FE00
00FF80
003F80
000F00
000300
000000
000000
007E00
01FFC0
07FFE0
0FFFF0
1F81F8
3E007C
3C003C
78001E
78001E
70000F
F0000F
F0000F
FFFFFF
FFFFFF
FFFFFF
F00000
F80000
780000
7C001E
3C003E
3F007C
1FC1F8
0FFFF0
07FFE0
03FFC0
007E00
ENDCHAR
STARTCHAR 00E9
ENCODING 233
SWIDTH 650 0
DWIDTH 28 0
BBX 24 36 2 -1
BITMAP
000080
0003C0
000FC0
001FE0
007F80
01FE00
01F800
00F000
00C000
000000
007E00
03FFC0
07FFE0
0FFFF0
1F81F8
3E007C
3C003C
78001E
78001E
70000F
F0000F
F0000F
FFFFFF
FFFFFF
FFFFFF
F00000
F80000
780000
7C001E
3C003E
3F007C
1FC1F8
0FFFF0
07FFE0
03FFC0
007E00
ENDCHAR
STARTCHAR 00EA
ENCODING 234
SWIDTH 650 0
DWIDTH 28 0
BBX 24 34 2 -1
BITMAP
007E00
00FF00
01FF80
03E7C0
07C3E0
0F81F0
000000
000000
007E00
03FFC0
07FFE0
0FFFF0
1F81F8
3E007C
3C003C
78001E
78001E
70000F
F0000F
F0000F
FFFFFF
FFFFFF
FFFFFF
F00000
F80000
780000
7C001E
3C003E
3F007C
1FC1F8
0FFFF0
07FFE0
03FFC0
007E00
ENDCHAR
STARTCHAR 00EB
ENCODING 235
SWIDTH 650 0
DWIDTH 28 0
BBX 24 34 2 -1
BITMAP
03C780
03C780
03C780
03C780
03C780
000000
000000
000000
00FE00
03FF80
07FFE0
0FFFF0
1F83F8
3E00FC
3C003C
78003E
78001E
70000F
F0000F
F0000F
FFFFFF
FFFFFF
FFFFFF
F00000
F00000
780000
7C001E
7C003C
3E007C
1F81F8
0FFFF0
07FFE0
03FF80
00FE00
ENDCHAR
STARTCHAR 00EC
ENCODING 236
SWIDTH 232 0
DWIDTH 10 0
BBX 11 35 -3 1
BITMAP
6000
7800
FE00
7F00
3FC0
0FE0
03C0
01C0
0000
0000
0000
03C0
03C0
03C0
03C0
03C0
03C0
03C0
03C0
03C0
03C0
03C0
03C0
03C0
03C0
03C0
03C0
03C0
03C0
03C0
03C0
03C0
03C0
03C0
03C0
ENDCHAR
STARTCHAR 00ED
ENCODING 237
SWIDTH 232 0
DWIDTH 10 0
BBX 12 35 2 0
BITMAP
0040
01E0
03E0
0FF0
3FC0
FF00
7E00
7800
2000
0000
0000
7800
7800
7800
7800
7800
7800
7800
7800
7800
7800
7800
7800
7800
7800
7800
7800
7800
7800
7800
7800
7800
7800
7800
7800
ENDCHAR
STARTCHAR 00EE
ENCODING 238
SWIDTH 232 0
DWIDTH 10 0
BBX 16 33 -3 0
BITMAP
03C0
07E0
0FF0
1F78
3E7E
FC3F
0000
0000
0000
03C0
03C0
03C0
03C0
03C0
03C0
03C0
03C0
03C0
03C0
03C0
03C0
03C0
03C0
03C0
03C0
03C0
03C0
03C0
03C0
03C0
03C0
03C0
03C0
ENDCHAR
STARTCHAR 00EF
ENCODING 239
SWIDTH 232 0
DWIDTH 10 0
BBX 10 33 0 0
BITMAP
F3C0
F3C0
F3C0
F3C0
F3C0
0000
0000
0000
0000
1E00
1E00
1E00
1E00
1E00
1E00
1E00
1E00
1E00
1E00
1E00
1E00
1E00
1E00
1E00
1E00
1E00
1E00
1E00
1E00
1E00
1E00
1E00
1E00
ENDCHAR
STARTCHAR 00F0
ENCODING 240
SWIDTH 673 0
DWIDTH 29 0
BBX 25 34 2 -1
BITMAP
01C06000
0FFBF000
03FFF800
00FFC000
07FFC000
3FEFE000
1F03F000
0801F800
007EF800
01FFFC00
07FFFE00
0FFFFE00
1FC1FF00
3F007F00
3E001F00
7C001F00
78000F80
78000F80
F0000780
F0000780
F0000780
F0000780
F0000780
F0000780
78000F00
78000F00
7C001F00
3E003E00
3F007E00
1FC1FC00
0FFFF800
07FFF000
01FFC000
007F0000
ENDCHAR
STARTCHAR 00F1
ENCODING 241
SWIDTH 627 0
DWIDTH 27 0
BBX 20 32 3 0
BITMAP
078100
1FFF80
1FFFC0
0FFF80
080E00
000000
000000
00FC00
F3FF00
F7FF80
FFFFC0
FF07E0
FC03E0
F801F0
F801F0
F000F0
F000F0
F000F0
F000F0
F000F0
F000F0
F000F0
F000F0
F000F0
F000F0
F000F0
F000F0
F000F0
F000F0
F000F0
F000F0
F000F0
ENDCHAR
STARTCHAR 00F2
ENCODING 242
SWIDTH 673 0
DWIDTH 29 0
BBX 25 36 2 0
BITMAP
01C00000
01F00000
03F80000
01FE0000
007F8000
001F8000
00078000
00030000
00000000
00000000
007F0000
01FFE000
07FFF000
0FFFF800
1FC1FC00
3F007E00
3E003E00
7C001F00
78000F00
78000F80
F0000780
F0000780
F0000780
F0000780
F0000780
F0000780
78000F80
78000F00
7C001F00
3E003E00
3F007E00
1FC1FC00
0FFFF800
07FFF000
01FFC000
007F0000
ENDCHAR
STARTCHAR 00F3
ENCODING 243
SWIDTH 673 0
DWIDTH 29 0
BBX 25 36 2 -1
BITMAP
00004000
0001E000
0007E000
000FF000
003FC000
00FF0000
00FC0000
00780000
00600000
00000000
003F0000
01FFE000
07FFF000
0FFFF800
1FC0FC00
3F007E00
3E001E00
7C001F00
78000F00
78000F80
F0000780
F0000780
F0000780
F0000780
F0000780
F0000780
78000F80
78000F00
7C001F00
3E001E00
3F007E00
1FC0FC00
0FFFF800
07FFF000
01FFE000
007F0000
ENDCHAR
STARTCHAR 00F4
ENCODING 244
SWIDTH 673 0
DWIDTH 29 0
BBX 25 34 2 -1
BITMAP
007E0000
00FF0000
01FF8000
03E7C000
07E3E000
0FC3F000
00000000
00000000
007F0000
03FFC000
07FFF000
0FFFF800
1F81FC00
3F007E00
3C003E00
7C001F00
78000F00
F8000F80
F0000780
F0000780
F0000780
F0000780
F0000780
F0000780
78000F00
78000F00
7C001F00
3E003E00
3F007E00
1F81FC00
0FFFF800
07FFF000
03FFC000
007E0000
ENDCHAR
STARTCHAR 00F5
ENCODING 245
SWIDTH 673 0
DWIDTH 29 0
BBX 25 33 2 -1
BITMAP
01F02000
07FFF000
07FFF800
03FFF000
0201C000
00000000
00000000
007F0000
01FFE000
07FFF000
0FFFF800
1FC1FC00
3F007E00
3E003E00
7C001F00
78000F00
78000F80
F0000780
F0000780
F0000780
F0000780
F0000780
F0000780
78000F80
78000F00
7C001F00
3E003E00
3F007E00
1FC0FC00
0FFFF800
07FFF000
01FFC000
007F0000
ENDCHAR
STARTCHAR 00F6
ENCODING 246
SWIDTH 673 0
DWIDTH 29 0
BBX 25 34 2 -1
BITMAP
01E3C000
01E3C000
01E3C000
01E3C000
01E3C000
00000000
00000000
00000000
007F0000
01FFC000
07FFF000
0FFFF800
1FC1FC00
3F007E00
3E003E00
7C001F00
78000F00
78000F80
F0000780
F0000780
F0000780
F0000780
F0000780
F0000780
78000F80
78000F00
7C001F00
3E003E00
3F007E00
1FC1FC00
0FFFF800
07FFF000
01FFC000
007F0000
ENDCHAR
STARTCHAR 00F7
ENCODING 247
SWIDTH 603 0
DWIDTH 26 0
BBX 22 21 2 0
BITMAP
007800
007800
007800
007800
000000
000000
000000
000000
FFFFFC
FFFFFC
FFFFFC
FFFFFC
000000
000000
000000
000000
007800
007800
007800
007800
007800
ENDCHAR
STARTCHAR 00F8
ENCODING 248
SWIDTH 673 0
DWIDTH 29 0
BBX 25 30 2 -3
BITMAP
00001800
00001C00
007F3E00
01FFFC00
07FFFC00
0FFFFC00
1FC1FC00
3F01FE00
3E03FF00
7C07DF00
7807CF00
780F8F80
F00F8780
F01F0780
F03E0780
F03E0780
F07C0780
F0F80780
F8F80F00
79F00F00
7DF01F00
3FE03E00
3FC07E00
1FC1FC00
0FFFF800
1FFFF000
1FFFC000
3E7F0000
3C000000
0C000000
ENDCHAR
STARTCHAR 00F9
ENCODING 249
SWIDTH 627 0
DWIDTH 27 0
BBX 21 36 3 0
BITMAP
0C0000
0F0000
1FC000
0FF000
03FC00
01FC00
007C00
001800
000000
000000
000000
F00078
F00078
F00078
F00078
F00078
F00078
F00078
F00078
F00078
F00078
F00078
F00078
F00078
F00078
F00078
F00078
F00078
F800F8
7800F8
7C01F8
7F07F8
3FFFF8
1FFF78
0FFE78
01F800
ENDCHAR
STARTCHAR 00FA
ENCODING 250
SWIDTH 627 0
DWIDTH 27 0
BBX 21 36 3 -1
BITMAP
000080
0003C0
000FC0
003FE0
007F80
01FE00
01F800
00E000
008000
000000
000000
F00078
F00078
F00078
F00078
F00078
F00078
F00078
F00078
F00078
F00078
F00078
F00078
F00078
F00078
F00078
F00078
F00078
F800F8
7800F8
7C01F8
7F07F8
3FFFF8
1FFF78
0FFE78
01F800
ENDCHAR
STARTCHAR 00FB
ENCODING 251
SWIDTH 627 0
DWIDTH 27 0
BBX 20 34 3 -1
BITMAP
01F800
03FC00
07FE00
0FDF00
1F8F80
3F07C0
000000
000000
000000
F000F0
F000F0
F000F0
F000F0
F000F0
F000F0
F000F0
F000F0
F000F0
F000F0
F000F0
F000F0
F000F0
F000F0
F000F0
F000F0
F000F0
F801F0
7801F0
7C03F0
7E0FF0
3FFFF0
1FFFF0
0FFCF0
03F000
ENDCHAR
STARTCHAR 00FC
ENCODING 252
SWIDTH 627 0
DWIDTH 27 0
BBX 21 34 3 -1
BITMAP
078F00
078F00
078F00
078F00
078F00
000000
000000
000000
000000
F00078
F00078
F00078
F00078
F00078
F00078
F00078
F00078
F00078
F00078
F00078
F00078
F00078
F00078
F00078
F00078
F00078
F800F8
7800F8
7C01F8
7F07F8
3FFFF8
1FFF78
0FFE78
03F800
ENDCHAR
STARTCHAR 00FD
ENCODING 253
SWIDTH 580 0
DWIDTH 25 0
BBX 24 43 0 -8
BITMAP
000040
0001E0
0003E0
000FF0
003FC0
00FF00
007E00
007800
002000
000000
000000
F8001F
78001E
7C003E
7C003E
3E003C
3E007C
1E0078
1F00F8
1F00F0
0F00F0
0F81F0
0781E0
07C3E0
07C3C0
03C3C0
03E7C0
01E780
01FF80
00FF00
00FF00
00FF00
007E00
007E00
003C00
007C00
007800
00F800
00F800
00F000
01F000
01E000
03E000
ENDCHAR
STARTCHAR 00FE
ENCODING 254
SWIDTH 696 0
DWIDTH 30 0
BBX 24 40 3 -8
BITMAP
F00000
F00000
F00000
F00000
F00000
F00000
F00000
F07F00
F1FFC0
F7FFE0
FFFFF0
FF83F8
FE00FC
FC007C
FC003E
F8001E
F8001F
F0000F
F0000F
F0000F
F0000F
F0000F
F0000F
F8001F
F8001E
FC003E
FC003E
FF007C
FF81F8
FFFFF8
F7FFE0
F1FFC0
F07F00
F00000
F00000
F00000
F00000
F00000
F00000
F00000
ENDCHAR
STARTCHAR 00FF
ENCODING 255
SWIDTH 580 0
DWIDTH 25 0
BBX 24 41 0 -8
BITMAP
03C780
03C780
03C780
03C780
03C780
000000
000000
000000
000000
F8003F
78003E
7C003E
7C007C
3C007C
3E007C
1E00F8
1E00F8
1F01F0
0F01F0
0F81E0
0783E0
0783E0
07C7C0
03C7C0
03C780
01EF80
01EF00
00FF00
00FE00
00FE00
007E00
007C00
003C00
007800
007800
00F000
00F000
00E000
01E000
01E000
03C000
ENDCHAR
STARTCHAR 0131
ENCODING 305
SWIDTH 232 0
DWIDTH 10 0
BBX 4 24 3 0
BITMAP
F0
F0
F0
F0
F0
F0
F0
F0
F0
F0
F0
F0
F0
F0
F0
F0
F0
F0
F0
F0
F0
F0
F0
F0
ENDCHAR
STARTCHAR 0141
ENCODING 321
SWIDTH 441 0
DWIDTH 19 0
BBX 18 32 0 0
BITMAP
1E0000
1E0000
1E0000
1E0000
1E0000
1E0000
1E0000
1E0800
1E1800
1E7800
1EF800
1FF800
1FF000
1FC000
1F8000
7E0000
FE0000
FE0000
FE0000
DE0000
9E0000
1E0000
1E0000
1E0000
1E0000
1E0000
1E0000
1E0000
1FFFC0
1FFFC0
1FFFC0
1FFFC0
ENDCHAR
STARTCHAR 0142
ENCODING 322
SWIDTH 278 0
DWIDTH 12 0
BBX 10 32 1 0
BITMAP
1E00
1E00
1E00
1E00
1E00
1E00
1E00
1E00
1E00
1E40
1EC0
1FC0
1FC0
1FC0
3F00
7E00
FE00
FE00
FE00
9E00
1E00
1E00
1E00
1E00
1E00
1E00
1E00
1E00
1E00
1E00
1E00
1E00
ENDCHAR
STARTCHAR 0152
ENCODING 338
SWIDTH 1091 0
DWIDTH 47 0
BBX 43 33 2 -1
BITMAP
000FF80FFFE0
007FFF0FFFE0
01FFFFCFFFE0
03FFFFEFFFE0
07F81FFF0000
0FC003FF0000
1F8001FF0000
1F0000FF0000
3E00007F0000
3C00003F0000
7800001F0000
7800001F0000
7800001F0000
F000000F0000
F000000FFFE0
F000000FFFE0
F000000FFFE0
F000000FFFE0
F000000F0000
F000000F0000
7800001F0000
7800001F0000
7C00001F0000
3C00003F0000
3E00007F0000
1F00007F0000
1F8001FF0000
0FC003FF0000
07F80FEFFFE0
03FFFFCFFFE0
01FFFF8FFFE0
007FFE0FFFE0
000FF0000000
ENDCHAR
STARTCHAR 0153
ENCODING 339
SWIDTH 1138 0
DWIDTH 49 0
BBX 45 26 2 -1
BITMAP
007F0007F000
01FFE01FFE00
07FFF03FFF00
0FFFF8FFFF80
1FC1FCFC0FC0
3F007FF007E0
3E003FE001E0
7C001FE001F0
78001FC000F0
78000FC000F8
F0000F8000F8
F0000F800078
F00007FFFFF8
F00007FFFFF8
F00007FFFFF8
F0000F800000
F8000FC00000
78000FC00000
7C001FE001F0
3E003FE001F0
3F007FF803E0
1FC1FCFC0FC0
0FFFF87FFF80
07FFF03FFF00
01FFC01FFE00
007F0003F000
ENDCHAR
STARTCHAR 0160
ENCODING 352
SWIDTH 487 0
DWIDTH 21 0
BBX 18 42 1 -1
BITMAP
3E0F80
1E1E00
0F3E00
07FC00
03F800
01F000
000000
000000
000000
03F000
0FFC00
1FFE00
1FFF00
3E1F00
3C0F80
780780
780780
780780
780000
7C0000
7C0000
3F0000
3FE000
1FF800
0FFC00
07FF00
00FF00
003F80
000F80
0007C0
0003C0
0003C0
F003C0
F003C0
F003C0
F807C0
7C0780
7E1F80
3FFF00
1FFE00
0FFC00
03F000
ENDCHAR
STARTCHAR 0161
ENCODING 353
SWIDTH 418 0
DWIDTH 18 0
BBX 16 34 1 -1
BITMAP
F81F
7C3E
3E7C
1FF8
0FF0
07E0
0000
0000
03E0
0FF8
1FFC
3FFC
3C3E
781E
781E
7800
7C00
7E00
3FC0
3FF0
1FFC
07FE
01FE
003F
001F
F00F
F00F
F00F
F81F
7C3E
7FFE
3FFC
1FF8
07E0
ENDCHAR
STARTCHAR 0178
ENCODING 376
SWIDTH 603 0
DWIDTH 26 0
BBX 22 40 1 0
BITMAP
03CF00
03CF00
03CF00
03CF00
03CF00
000000
000000
000000
F8007C
F8007C
7C00F8
7C00F8
7E00F0
3E01F0
3E01F0
1F03E0
1F03E0
0F87C0
0F87C0
07C780
07CF80
03CF00
03FF00
01FE00
01FE00
00FC00
00FC00
007800
007800
007800
007800
007800
007800
007800
007800
007800
007800
007800
007800
007800
ENDCHAR
STARTCHAR 017D
ENCODING 381
SWIDTH 464 0
DWIDTH 20 0
BBX 20 41 0 0
BITMAP
1F03E0
0F87C0
07CF80
03FF00
01FE00
00FC00
000000
000000
000000
7FFFE0
7FFFE0
7FFFE0
7FFFE0
0003E0
0007C0
0007C0
000F80
000F80
001F00
003E00
003E00
007C00
007C00
00F800
01F000
01F000
03E000
03E000
07C000
0FC000
0F8000
1F0000
1F0000
3E0000
7E0000
7C0000
FC0000
FFFFF0
FFFFF0
FFFFF0
FFFFF0
ENDCHAR
STARTCHAR 017E
ENCODING 382
SWIDTH 418 0
DWIDTH 18 0
BBX 17 33 0 0
BITMAP
3E0F80
1F1F00
0FBE00
07FC00
03F800
01F000
000000
000000
000000
7FFF00
7FFF00
7FFF00
7FFF00
001F00
003E00
003E00
007C00
00F800
00F800
01F000
03E000
03E000
07C000
0F8000
1F0000
1F0000
3E0000
7C0000
7C0000
FFFF80
FFFF80
FFFF80
FFFF80
ENDCHAR
STARTCHAR 0192
ENCODING 402
SWIDTH 557 0
DWIDTH 24 0
BBX 22 42 1 -6
BITMAP
00003C
0000FC
0001F8
0003F8
0007E0
0007C0
000780
000F80
000F00
000F00
00FFF0
01FFF0
01FFF0
01FFF0
001E00
001E00
001E00
003E00
003E00
003C00
003C00
003C00
003C00
007C00
007800
007800
007800
007800
00F800
00F000
00F000
00F000
00F000
01F000
01E000
01E000
03E000
0FC000
7FC000
FF8000
FF0000
F80000
ENDCHAR
STARTCHAR 02C6
ENCODING 710
SWIDTH 557 0
DWIDTH 24 0
BBX 16 6 4 27
BITMAP
07E0
0FF0
1FF8
3F7C
7E3E
FC3F
ENDCHAR
STARTCHAR 02C7
ENCODING 711
SWIDTH 557 0
DWIDTH 24 0
BBX 16 6 4 27
BITMAP
F81F
7C3E
3E7C
1FF8
0FF0
07E0
ENDCHAR
STARTCHAR 02D8
ENCODING 728
SWIDTH 557 0
DWIDTH 24 0
BBX 16 5 4 28
BITMAP
F00F
781E
7FFE
3FF8
07E0
ENDCHAR
STARTCHAR 02D9
ENCODING 729
SWIDTH 557 0
DWIDTH 24 0
BBX 4 5 10 28
BITMAP
F0
F0
F0
F0
F0
ENDCHAR
STARTCHAR 02DA
ENCODING 730
SWIDTH 557 0
DWIDTH 24 0
BBX 10 10 7 26
BITMAP
1E00
3F80
7F80
F1C0
E1C0
E1C0
F3C0
7F80
3F00
1E00
ENDCHAR
STARTCHAR 02DB
ENCODING 731
SWIDTH 557 0
DWIDTH 24 0
BBX 7 9 8 -8
BITMAP
38
70
60
E0
E0
F0
FE
7E
1E
ENDCHAR
STARTCHAR 02DC
ENCODING 732
SWIDTH 557 0
DWIDTH 24 0
BBX 16 5 4 27
BITMAP
3E06
FFFE
7FFF
7FFE
2038
ENDCHAR
STARTCHAR 02DD
ENCODING 733
SWIDTH 557 0
DWIDTH 24 0
BBX 17 6 4 27
BITMAP
07CF80
0F9F00
1F3E00
3E7C00
7CF800
F9F000
ENDCHAR
STARTCHAR 2013
ENCODING 8211
SWIDTH 510 0
DWIDTH 22 0
BBX 19 4 2 10
BITMAP
FFFFE0
FFFFE0
FFFFE0
FFFFE0
ENDCHAR
STARTCHAR 2014
ENCODING 8212
SWIDTH 998 0
DWIDTH 43 0
BBX 40 4 2 10
BITMAP
FFFFFFFFFF
FFFFFFFFFF
FFFFFFFFFF
FFFFFFFFFF
ENDCHAR
STARTCHAR 2018
ENCODING 8216
SWIDTH 278 0
DWIDTH 12 0
BBX 4 11 4 21
BITMAP
10
70
70
E0
E0
E0
F0
F0
F0
F0
F0
ENDCHAR
STARTCHAR 2019
ENCODING 8217
SWIDTH 278 0
DWIDTH 12 0
BBX 4 11 4 21
BITMAP
F0
F0
F0
F0
F0
70
70
70
E0
E0
80
ENDCHAR
STARTCHAR 201A
ENCODING 8218
SWIDTH 278 0
DWIDTH 12 0
BBX 4 11 4 -6
BITMAP
F0
F0
F0
F0
F0
70
70
70
E0
E0
80
ENDCHAR
STARTCHAR 201C
ENCODING 8220
SWIDTH 418 0
DWIDTH 18 0
BBX 10 11 4 21
BITMAP
1040
71C0
71C0
E380
E380
E380
F3C0
F3C0
F3C0
F3C0
F3C0
ENDCHAR
STARTCHAR 201D
ENCODING 8221
SWIDTH 418 0
DWIDTH 18 0
BBX 10 11 4 21
BITMAP
F3C0
F3C0
F3C0
F3C0
F3C0
71C0
71C0
71C0
E380
E380
8200
ENDCHAR
STARTCHAR 201E
ENCODING 8222
SWIDTH 418 0
DWIDTH 18 0
BBX 10 11 4 -6
BITMAP
F3C0
F3C0
F3C0
F3C0
F3C0
71C0
71C0
71C0
E380
E380
8200
ENDCHAR
STARTCHAR 2020
ENCODING 8224
SWIDTH 580 0
DWIDTH 25 0
BBX 18 41 3 -10
BITMAP
01E000
01E000
01E000
01E000
01E000
01E000
01E000
01E000
FFFFC0
FFFFC0
FFFFC0
FFFFC0
01E000
01E000
01E000
01E000
01E000
01E000
01E000
01E000
01E000
01E000
01E000
01E000
01E000
01E000
01E000
01E000
01E000
01E000
01E000
01E000
01E000
01E000
01E000
01E000
01E000
01E000
01E000
01E000
01E000
ENDCHAR
STARTCHAR 2021
ENCODING 8225
SWIDTH 580 0
DWIDTH 25 0
BBX 18 42 3 -10
BITMAP
01E000
01E000
01E000
01E000
01E000
01E000
01E000
FFFFC0
FFFFC0
FFFFC0
FFFFC0
01E000
01E000
01E000
01E000
01E000
01E000
01E000
01E000
01E000
01E000
01E000
01E000
01E000
01E000
01E000
01E000
FFFFC0
FFFFC0
FFFFC0
FFFFC0
01E000
01E000
01E000
01E000
01E000
01E000
01E000
01E000
01E000
01E000
01E000
ENDCHAR
STARTCHAR 2022
ENCODING 8226
SWIDTH 603 0
DWIDTH 26 0
BBX 13 13 6 10
BITMAP
0F80
3FE0
7FF0
7FF0
FFF8
FFF8
FFF8
FFF8
FFF8
7FF0
7FF0
3FE0
0F80
ENDCHAR
STARTCHAR 2026
ENCODING 8230
SWIDTH 998 0
DWIDTH 43 0
BBX 33 5 5 1
BITMAP
F003C00780
F003C00780
F003C00780
F003C00780
F003C00780
ENDCHAR
STARTCHAR 2030
ENCODING 8240
SWIDTH 1230 0
DWIDTH 53 0
BBX 49 34 2 -1
BITMAP
07E00040000000
1FF801C0000000
3FFC0180000000
7FFE0380000000
7C3E0300000000
F81F0600000000
F00F0E00000000
F00F0C00000000
F00F1C00000000
F00F1800000000
F81F3800000000
7C3E3000000000
7FFE7000000000
3FFCE000000000
1FF8C000000000
07E1C000000000
00018000000000
00038000000000
000307E003F000
00071FF80FFC00
000E3FFC1FFE00
000E7FFE3FFF00
001C7C3E3E1F00
0018F81F7C0F80
0038F00F780780
0070F00F780780
0070F00F780780
00E0F00F780780
00E0F81F7C0F80
01C07C3E3E1F00
01C07FFE3FFF00
03803FFC1FFE00
07001FF80FFC00
000007E003F000
ENDCHAR
STARTCHAR 2039
ENCODING 8249
SWIDTH 209 0
DWIDTH 9 0
BBX 6 16 1 4
BITMAP
04
0C
1C
3C
7C
F8
F0
E0
E0
F0
F8
7C
3C
1C
0C
04
ENDCHAR
STARTCHAR 203A
ENCODING 8250
SWIDTH 209 0
DWIDTH 9 0
BBX 6 16 1 5
BITMAP
80
C0
E0
F0
F8
7C
3C
1C
1C
3C
7C
F8
F0
E0
C0
80
ENDCHAR
STARTCHAR 2044
ENCODING 8260
SWIDTH 185 0
DWIDTH 8 0
BBX 16 32 -4 0
BITMAP
0007
000E
000E
001E
001C
001C
0038
0038
0070
0070
0070
00E0
00E0
01C0
01C0
03C0
0380
0380
0700
0700
0E00
0E00
0E00
1C00
1C00
3800
3800
7800
7000
7000
E000
E000
ENDCHAR
STARTCHAR 2122
ENCODING 8482
SWIDTH 998 0
DWIDTH 43 0
BBX 39 18 0 12
BITMAP
FFFC3F007E
FFFC3F80FE
FFFC3F80FE
07803F80FE
07803FC1FE
07803FC1FE
07803DE3DE
07803DE3DE
07803DE3DE
07803CF79E
07803CF79E
07803CFF9E
07803C7F1E
07803C7F1E
07803C3E1E
07803C3E1E
07803C3E1E
07803C1C1E
ENDCHAR
STARTCHAR 2212
ENCODING 8722
SWIDTH 603 0
DWIDTH 26 0
BBX 22 4 2 9
BITMAP
FFFFFC
FFFFFC
FFFFFC
FFFFFC
ENDCHAR
STARTCHAR FB01
ENCODING 64257
SWIDTH 487 0
DWIDTH 21 0
BBX 17 32 1 0
BITMAP
01E780
07E780
0FE780
1FE780
3F0780
3C0000
3C0000
3C0000
FFFF80
FFFF80
FFFF80
FFFF80
3C0780
3C0780
3C0780
3C0780
3C0780
3C0780
3C0780
3C0780
3C0780
3C0780
3C0780
3C0780
3C0780
3C0780
3C0780
3C0780
3C0780
3C0780
3C0780
3C0780
ENDCHAR
STARTCHAR FB02
ENCODING 64258
SWIDTH 487 0
DWIDTH 21 0
BBX 17 32 1 0
BITMAP
01E780
07E780
0FE780
1FE780
3F0780
3C0780
3C0780
3C0780
FFFF80
FFFF80
FFFF80
FFFF80
3C0780
3C0780
3C0780
3C0780
3C0780
3C0780
3C0780
3C0780
3C0780
3C0780
3C0780
3C0780
3C0780
3C0780
3C0780
3C0780
3C0780
3C0780
3C0780
3C0780
ENDCHAR
ENDFONT
